<?xml version="1.0" encoding="UTF-8"?>
<!-- Generator: visioncortex VTracer 0.6.12 -->
<svg version="1.1" xmlns="http://www.w3.org/2000/svg" width="108" height="108">
<path d="M0 0 C35.64 0 71.28 0 108 0 C108 35.64 108 71.28 108 108 C72.36 108 36.72 108 0 108 C0 72.36 0 36.72 0 0 Z " fill="#F1EBE2" transform="translate(0,0)"/>
<path d="M0 0 C5.5413 4.6238 10.7083 9.5252 15.8125 14.625 C16.575 15.3752 17.3375 16.1255 18.123 16.8984 C18.4875 17.262 18.4875 17.262 20.332 19.1016 C20.9892 19.7546 21.6464 20.4077 22.3235 21.0806 C26.9896 26.4227 27.1311 32.5184 27.0977 39.2734 C27.0944 40.4271 27.0912 41.5809 27.0879 42.7695 C27.0837 43.3644 27.0837 43.3644 27.0625 46.375 C27.058 47.588 27.0535 48.801 27.0488 50.0508 C27.0371 53.0339 27.0207 56.0169 27 59 C26.175 59.165 26.175 59.165 22 60 C26.2045 64.2045 29.1841 64.4929 35 64 C38.4375 62 38.4375 62 41 60 C39.35 59.67 37.7 59.34 36 59 C35.9415 54.8334 35.9062 50.6669 35.875 46.5 C35.8582 45.327 35.8415 44.1539 35.8242 42.9453 C35.7324 26.5968 35.7324 26.5968 41.6875 20.4375 C42.4738 19.6138 43.2602 18.7901 44.0703 17.9414 C44.5537 17.4561 44.5537 17.4561 47 15 C47.6236 14.3695 48.2472 13.739 48.8896 13.0894 C53.2332 8.6991 57.6071 4.3408 62 0 C74.0814 8.779 76.3931 23.9544 75 38 C70.2192 55.4406 58.6235 66.6666 41.8125 72.4375 C37.2301 74.3155 34.5941 76.6305 31 80 C30.0513 78.9069 29.1025 77.8137 28.125 76.6875 C24.6335 73.175 21.5159 72.0691 16.6836 70.8555 C3.804 66.7497 -7.5807 54.4444 -10.6406 41.2344 C-12.4126 25.2864 -11.6178 11.888 0 0 Z " fill="#0F0F0F" transform="translate(23,19)"/>
<path d="M0 0 C2.625 2.25 2.625 2.25 3.625 6.25 C-1.2497 9.4335 -4.5197 11.1017 -10.375 10.25 C-13.8125 8.25 -13.8125 8.25 -16.375 6.25 C-14.2416 -2.2834 -7.4312 -3.8532 0 0 Z " fill="#E5E0D8" transform="translate(84.375,43.75)"/>
<path d="M0 0 C3.5 2.25 3.5 2.25 6 5 C4.8233 9.7069 4.3004 10.1303 0 12 C-5.7005 12.7255 -8.5143 11.5011 -13 8 C-11.2498 0.9992 -7.0151 -1.1077 0 0 Z " fill="#E7E2DA" transform="translate(35,42)"/>
<path d="M0 0 C3.6963 3.6963 3.4504 4.9552 3 10 C1 13 1 13 -2.9375 13.375 C-7 13 -7 13 -10 10 C-10.8684 1.8952 -8.1048 -0.8684 0 0 Z " fill="#896029" transform="translate(58,11)"/>
</svg>
