<?xml version="1.0" encoding="UTF-8"?>
<!-- Generator: visioncortex VTracer 0.6.12 -->
<svg version="1.1" xmlns="http://www.w3.org/2000/svg" width="108" height="108">
<path d="M0 0 C35.64 0 71.28 0 108 0 C108 35.64 108 71.28 108 108 C72.36 108 36.72 108 0 108 C0 72.36 0 36.72 0 0 Z " fill="#F3EEE4" transform="translate(0,0)"/>
<path d="M0 0 C5.54126584 4.62383772 10.70826399 9.5251909 15.8125 14.625 C16.57498047 15.37523437 17.33746094 16.12546875 18.12304688 16.8984375 C18.4875293 17.26195312 18.4875293 17.26195312 20.33203125 19.1015625 C20.98921143 19.75463379 21.6463916 20.40770508 22.32348633 21.08056641 C26.96050097 26.38946536 27.13138883 32.45945662 27.09765625 39.2734375 C27.09443359 40.42714844 27.09121094 41.58085938 27.08789062 42.76953125 C27.08370117 43.36443359 27.08370117 43.36443359 27.0625 46.375 C27.05798828 47.58800781 27.05347656 48.80101562 27.04882812 50.05078125 C27.03708354 53.03390507 27.0206584 56.01692679 27 59 C26.175 59.165 26.175 59.165 22 60 C25.22297225 62.51549054 27.41591337 63.91655905 31.5 64.5 C35.58408663 63.91655905 37.77702775 62.51549054 41 60 C39.35 59.67 37.7 59.34 36 59 C35.91248501 54.47928979 35.8594339 49.9587993 35.8125 45.4375 C35.78736328 44.16068359 35.76222656 42.88386719 35.73632812 41.56835938 C35.63493663 28.55645066 39.17451672 23.04649278 48.06591797 13.8671875 C50.17409553 11.72838619 52.30130048 9.61079184 54.4375 7.5 C55.16904297 6.77296875 55.90058594 6.0459375 56.65429688 5.296875 C58.43389824 3.52890501 60.21580918 1.76333622 62 0 C70.07644746 7.97000335 75.08525163 16.90935131 75.4375 28.5 C74.88109045 40.9922919 70.53730676 53.72440086 61.1796875 62.375 C55.29917517 66.75903787 48.58234749 70.24338417 41.625 72.5625 C37.24200988 74.30058229 34.35785336 76.75757285 31 80 C30.59910156 79.52949219 30.19820312 79.05898437 29.78515625 78.57421875 C25.88904776 74.30705231 22.79589417 72.22771496 17.2578125 70.66015625 C6.47600746 67.50769076 -0.88826741 60.30852256 -6.5234375 50.80078125 C-12.32794343 39.79064698 -12.97087876 26.40992324 -9.4375 14.5 C-7.2874951 8.8804926 -4.00056929 4.45007146 0 0 Z " fill="#101010" transform="translate(23,19)"/>
<path d="M0 0 C15.84 0 31.68 0 48 0 C47.34 0.33 46.68 0.66 46 1 C44.21424996 4.47751323 43.85174775 6.30007609 45 10 C44.67 10.66 44.34 11.32 44 12 C44.66 12 45.32 12 46 12 C47.4783226 14.95664519 47.06032783 17.74229737 47 21 C46.835 20.67 46.835 20.67 46 19 C43.53199953 20.15173355 41.95216435 21.04783565 40 23 C40 22.34 40 21.68 40 21 C39.34 21 38.68 21 38 21 C38 21.99 38 22.98 38 24 C35.25 24.75 35.25 24.75 32 25 C29.625 23.1875 29.625 23.1875 28 21 C28 20.34 28 19.68 28 19 C26.35 18.34 24.7 17.68 23 17 C23 16.34 23 15.68 23 15 C19.49573902 17.33617399 19.47868546 17.9484909 18.5625 21.875 C17.57045817 25.9487037 16.342462 29.72467434 14.8125 33.625 C11.12710521 44.44205571 12.65007055 56.83897613 14 68 C12.02 69.32 10.04 70.64 8 72 C8.66 72.66 9.32 73.32 10 74 C9.67 74.165 9.67 74.165 8 75 C7.67 75.99 7.34 76.98 7 78 C7.66 77.835 7.66 77.835 11 77 C11.93045933 79.55144824 12.08564091 80.74006478 11.22265625 83.359375 C10.83980469 84.14828125 10.45695313 84.9371875 10.0625 85.75 C9.68222656 86.54921875 9.30195313 87.3484375 8.91015625 88.171875 C8.60980469 88.77515625 8.30945312 89.3784375 8 90 C8.66 90.33 9.32 90.66 10 91 C9.34 91 8.68 91 8 91 C8 91.66 8 92.32 8 93 C8.66 93.33 9.32 93.66 10 94 C9.835 94.33 9.835 94.33 9 96 C8.01 96 7.02 96 6 96 C6 96.66 6 97.32 6 98 C6.66 98 7.32 98 8 98 C7.67 98.99 7.34 99.98 7 101 C5.845 101.165 5.845 101.165 0 102 C0 68.34 0 34.68 0 0 Z " fill="#F4EEE4" transform="translate(0,0)"/>
<path d="M0 0 C-0.33 0.66 -0.66 1.32 -1 2 C-1.66 2 -2.32 2 -3 2 C-2.835 2.99 -2.835 2.99 -2 8 C-2.99 8.33 -3.98 8.66 -5 9 C0.625 9.25 0.625 9.25 4 7 C5 8 5 8 5.0625 11.0625 C5.041875 12.031875 5.02125 13.00125 5 14 C4.34 14 3.68 14 3 14 C3.61864407 20.55762712 3.61864407 20.55762712 5.5625 22.8125 C6.036875 23.204375 6.51125 23.59625 7 24 C7 24.66 7 25.32 7 26 C7.99 26 8.98 26 10 26 C10.165 26.33 10.165 26.33 11 28 C13.0625 29.125 13.0625 29.125 15 30 C14.5625 30.51041667 14.5625 30.51041667 12.375 33.0625 C11.83101562 33.701875 11.28703125 34.34125 10.7265625 35 C9.61521157 36.28735673 8.48612166 37.55971725 7.3359375 38.8125 C6.81257813 39.39 6.28921875 39.9675 5.75 40.5625 C5.51023437 40.82095703 5.51023437 40.82095703 4.296875 42.12890625 C1.20778147 46.58576107 0.731666 51.4161353 0.5859375 56.7109375 C0.54726563 57.95488281 0.50859375 59.19882812 0.46875 60.48046875 C0.4378125 61.76566406 0.406875 63.05085938 0.375 64.375 C0.33632813 65.68339844 0.29765625 66.99179688 0.2578125 68.33984375 C0.16380043 71.55975716 0.07814179 74.7796688 0 78 C1.98 78 3.96 78 6 78 C0.27312296 83.87758433 0.27312296 83.87758433 -4.25 84.3125 C-8.63436813 83.94713599 -10.61562477 82.73973233 -14 80 C-14.165 79.67 -14.165 79.67 -15 78 C-13.02 78 -11.04 78 -9 78 C-9.11075241 73.83282821 -9.24117271 69.66648955 -9.375 65.5 C-9.4059375 64.32695313 -9.436875 63.15390625 -9.46875 61.9453125 C-9.84808754 50.69163212 -10.90695428 44.1576335 -19 36 C-19.68304199 35.29746094 -20.36608398 34.59492187 -21.06982422 33.87109375 C-23.17421067 31.72830431 -25.301175 29.61091583 -27.4375 27.5 C-28.16904297 26.77296875 -28.90058594 26.0459375 -29.65429688 25.296875 C-31.43389824 23.52890501 -33.21580918 21.76333622 -35 20 C-36.98 21.65 -38.96 23.3 -41 25 C-40.64766839 19.5388601 -40.64766839 19.5388601 -40 17 C-37.9375 15.5 -37.9375 15.5 -36 15 C-35.62875 15.391875 -35.2575 15.78375 -34.875 16.1875 C-33.24428901 17.76385396 -31.58155175 19.14893146 -29.8125 20.5625 C-29.3484375 20.9646875 -29.3484375 20.9646875 -27 23 C-27 23.66 -27 24.32 -27 25 C-25.02 24.67 -23.04 24.34 -21 24 C-21 23.01 -21 22.02 -21 21 C-18.33333333 20.33333333 -15.66666667 19.66666667 -13 19 C-13 16.69 -13 14.38 -13 12 C-13.66 12 -14.32 12 -15 12 C-15 4 -15 4 -13.6875 1.8125 C-9.43687023 -1.0542038 -4.9805663 -0.3091386 0 0 Z " fill="#F4EEE5" transform="translate(59,0)"/>
<path d="M0 0 C8.07644746 7.97000335 13.08525163 16.90935131 13.4375 28.5 C12.86419737 41.37156863 8.29364818 53.85208556 -1.25390625 62.76171875 C-3.73854066 64.52375255 -5.99089196 64.92660712 -9 65 C-8 62 -8 62 -5.875 60.0625 C-5.25625 59.381875 -4.6375 58.70125 -4 58 C-4.25 55.75 -4.25 55.75 -5 54 C-5.66 54 -6.32 54 -7 54 C-7.33 56.31 -7.66 58.62 -8 61 C-8.66 61 -9.32 61 -10 61 C-10.33 60.34 -10.66 59.68 -11 59 C-11.66 59 -12.32 59 -13 59 C-13.125 52.375 -13.125 52.375 -12 49 C-14.42501634 49.47153095 -16.81107261 49.94602074 -19.1875 50.625 C-21 51 -21 51 -23 50 C-23 44.39 -23 38.78 -23 33 C-22.175 32.835 -22.175 32.835 -18 32 C-18 32.66 -18 33.32 -18 34 C-18.99 34 -19.98 34 -21 34 C-20.814375 34.61875 -20.62875 35.2375 -20.4375 35.875 C-20 38 -20 38 -21 40 C-20.38511719 39.97679687 -19.77023438 39.95359375 -19.13671875 39.9296875 C-18.32847656 39.91164062 -17.52023438 39.89359375 -16.6875 39.875 C-15.88699219 39.85179687 -15.08648437 39.82859375 -14.26171875 39.8046875 C-12 40 -12 40 -9 42 C-8.67 42.99 -8.34 43.98 -8 45 C-7.34 45.33 -6.68 45.66 -6 46 C-6 45.01 -6 44.02 -6 43 C-5.34 43 -4.68 43 -4 43 C-4 44.32 -4 45.64 -4 47 C-3.01 47 -2.02 47 -1 47 C-1.66 45.35 -2.32 43.7 -3 42 C-2.01 42 -1.02 42 0 42 C-0.99 41.34 -1.98 40.68 -3 40 C-3 38.68 -3 37.36 -3 36 C-1.02 36 0.96 36 3 36 C2.67 35.01 2.34 34.02 2 33 C2.66 32.34 3.32 31.68 4 31 C3.79107816 27.72689117 3.56305786 25.67566943 1.4375 23.125 C0.963125 22.75375 0.48875 22.3825 0 22 C0.99 21.67 1.98 21.34 3 21 C3 21.66 3 22.32 3 23 C6.875 21.25 6.875 21.25 8 19 C7.34 19 6.68 19 6 19 C6 19.66 6 20.32 6 21 C4.906875 20.649375 3.81375 20.29875 2.6875 19.9375 C-1 19 -1 19 -4 20 C-4 20.66 -4 21.32 -4 22 C-4.59167969 22.17015625 -5.18335937 22.3403125 -5.79296875 22.515625 C-10.63657645 24.00110338 -14.22504826 25.46859353 -18 29 C-18.66 28.67 -19.32 28.34 -20 28 C-20.33 28.99 -20.66 29.98 -21 31 C-21.66 30.67 -22.32 30.34 -23 30 C-23 26 -23 26 -21.5 24.4375 C-21.005 23.963125 -20.51 23.48875 -20 23 C-20 22.01 -20 21.02 -20 20 C-18.1640625 17.82348633 -18.1640625 17.82348633 -15.625 15.33203125 C-14.72265625 14.43935547 -13.8203125 13.54667969 -12.890625 12.62695312 C-11.9272427 11.68863843 -10.96369892 10.7504895 -10 9.8125 C-9.03577654 8.86332231 -8.07222608 7.91346044 -7.109375 6.96289062 C-4.74613254 4.63509681 -2.37618518 2.31456867 0 0 Z " fill="#111111" transform="translate(85,19)"/>
<path d="M0 0 C5.50656435 4.60946843 10.70216876 9.45615182 15.8125 14.5 C16.57498047 15.23347656 17.33746094 15.96695313 18.12304688 16.72265625 C22.00248829 20.55750638 24.90328934 23.45503092 26 29 C25.835 29.165 25.835 29.165 25 30 C24.91241997 31.99964982 24.89303424 34.0023611 24.90234375 36.00390625 C24.90556641 37.21884766 24.90878906 38.43378906 24.91210938 39.68554688 C24.92048828 40.96494141 24.92886719 42.24433594 24.9375 43.5625 C24.94201172 44.84576172 24.94652344 46.12902344 24.95117188 47.45117188 C24.96300455 50.63416022 24.97948932 53.81705762 25 57 C23.68 57 22.36 57 21 57 C21 55.35 21 53.7 21 52 C19.35 52 17.7 52 16 52 C15.67 51.34 15.34 50.68 15 50 C17.33294775 49.95758277 19.66702567 49.95907063 22 50 C22.33 50.33 22.66 50.66 23 51 C22.979375 50.05125 22.95875 49.1025 22.9375 48.125 C23 45 23 45 24 43 C23.34 43 22.68 43 22 43 C21.835 42.34 21.835 42.34 21 39 C21.33 39.165 21.33 39.165 23 40 C23 39.34 23 38.68 23 38 C22.67 37.835 22.67 37.835 21 37 C20.67 36.01 20.34 35.02 20 34 C20.495 33.835 20.495 33.835 23 33 C22.34 32.34 21.68 31.68 21 31 C20.0925 31.804375 19.185 32.60875 18.25 33.4375 C15.82127198 35.48727755 14.10934452 36.30903455 11 37 C10.67 37.99 10.34 38.98 10 40 C10 39.34 10 38.68 10 38 C9.34 38 8.68 38 8 38 C9 40 9 40 11.06640625 40.8515625 C11.47826172 40.97917969 11.47826172 40.97917969 13.5625 41.625 C13.97564453 41.75519531 13.97564453 41.75519531 16.06640625 42.4140625 C16.70449219 42.60742188 17.34257813 42.80078125 18 43 C17.01 43.66 16.02 44.32 15 45 C14.3125 47.125 14.3125 47.125 14 49 C13.34 48.67 12.68 48.34 12 48 C11.375 45.4375 11.375 45.4375 11 43 C10.505 43.165 10.505 43.165 8 44 C8 44.99 8 45.98 8 47 C7.34 47 6.68 47 6 47 C6 46.34 6 45.68 6 45 C4.68 45 3.36 45 2 45 C1.835 44.175 1.835 44.175 1 40 C1.825 39.835 1.825 39.835 6 39 C5.01 39 4.02 39 3 39 C-0.48874441 38.56390695 -3.66086151 38.11304616 -7 37 C-7.66 38.32 -8.32 39.64 -9 41 C-12.09751834 30.44150271 -12.05940751 18.84879047 -7 9 C-4.8651977 5.8023581 -2.56945532 2.85815817 0 0 Z " fill="#131212" transform="translate(23,19)"/>
<path d="M0 0 C0.33 0 0.66 0 1 0 C1.33 4.95 1.66 9.9 2 15 C3.65 14.67 5.3 14.34 7 14 C7 14.66 7 15.32 7 16 C7.99 15.67 8.98 15.34 10 15 C11.67422986 15.29299023 13.34178227 15.62690101 15 16 C15.99 16 16.98 16 18 16 C18 16.66 18 17.32 18 18 C14.25 19.125 14.25 19.125 12 18 C12 18.66 12 19.32 12 20 C12.66 20.33 13.32 20.66 14 21 C14.99 21.66 15.98 22.32 17 23 C17 23.66 17 24.32 17 25 C17.66 25 18.32 25 19 25 C19 24.01 19 23.02 19 22 C19.66 22 20.32 22 21 22 C21.33 21.34 21.66 20.68 22 20 C22.66 20.99 23.32 21.98 24 23 C23.34 23 22.68 23 22 23 C22 23.66 22 24.32 22 25 C22.66 25.33 23.32 25.66 24 26 C24.33 25.67 24.66 25.34 25 25 C25 24.01 25 23.02 25 22 C25.66 21.67 26.32 21.34 27 21 C24.36 20.01 21.72 19.02 19 18 C19 17.34 19 16.68 19 16 C19.70125 15.7525 20.4025 15.505 21.125 15.25 C25.66359244 13.27669894 29.67575048 10.69361057 33 7 C33.66 8.98 34.32 10.96 35 13 C33.68 12.67 32.36 12.34 31 12 C31 12.66 31 13.32 31 14 C31.66 14.33 32.32 14.66 33 15 C33.33 14.67 33.66 14.34 34 14 C34.33 14 34.66 14 35 14 C35 15.98 35 17.96 35 20 C34.34 19.67 33.68 19.34 33 19 C33 19.66 33 20.32 33 21 C33.66 21 34.32 21 35 21 C35 24.3 35 27.6 35 31 C34.34 30.34 33.68 29.68 33 29 C32.67 29 32.34 29 32 29 C32.185625 29.61875 32.37125 30.2375 32.5625 30.875 C33 33 33 33 32 35 C33.32 35 34.64 35 36 35 C35.67 25.76 35.34 16.52 35 7 C35.66 7 36.32 7 37 7 C38.01085428 10.34386398 38.11543463 13.3748118 38.09765625 16.859375 C38.09443359 17.97441406 38.09121094 19.08945312 38.08789062 20.23828125 C38.08370117 20.81771484 38.08370117 20.81771484 38.0625 23.75 C38.05798828 24.92433594 38.05347656 26.09867188 38.04882812 27.30859375 C38.03705094 30.20578072 38.02060326 33.10286454 38 36 C35.69 36 33.38 36 31 36 C31 36.66 31 37.32 31 38 C30.030625 38.12375 29.06125 38.2475 28.0625 38.375 C27.051875 38.58125 26.04125 38.7875 25 39 C24.67 39.66 24.34 40.32 24 41 C22.68 40.01 21.36 39.02 20 38 C20 38.66 20 39.32 20 40 C20.495 40.165 20.495 40.165 23 41 C23 41.66 23 42.32 23 43 C18.68652815 41.69288732 15.98982864 39.43402184 12.74609375 36.4375 C11 35 11 35 8.94921875 34.10546875 C6.3236269 32.61640564 5.65934904 31.01791911 4.375 28.3125 C3.97023438 27.48363281 3.56546875 26.65476562 3.1484375 25.80078125 C0.59335598 19.56951101 -0.28305345 14.20682394 -0.125 7.5625 C-0.12048828 7.19672852 -0.12048828 7.19672852 -0.09765625 5.34570312 C-0.07436153 3.56365702 -0.0385019 1.78178241 0 0 Z " fill="#060606" transform="translate(12,41)"/>
<path d="M0 0 C1.42567423 -0.02718807 2.85150028 -0.04648089 4.27734375 -0.0625 C4.67433472 -0.06830078 4.67433472 -0.06830078 6.68334961 -0.09765625 C9.69766851 0.02940957 12.22228485 0.86042455 15 2 C14.67 2.165 14.67 2.165 13 3 C13 3.99 13 4.98 13 6 C13.99 6.165 13.99 6.165 19 7 C18.67 7.495 18.67 7.495 17 10 C16.01 10 15.02 10 14 10 C12.92474806 12.65228812 11.90543849 15.28368454 11 18 C10.01 18 9.02 18 8 18 C7.34 19.98 6.68 21.96 6 24 C7.65 24.33 9.3 24.66 11 25 C11 25.66 11 26.32 11 27 C12.65 26.67 14.3 26.34 16 26 C16.33 25.01 16.66 24.02 17 23 C18.22160223 26.6648067 17.63002724 27.48631684 16.125 30.9375 C14.02585857 35.80369149 12.86987467 39.65944554 12.90234375 44.984375 C12.90556641 45.91894531 12.90878906 46.85351562 12.91210938 47.81640625 C12.92048828 48.78449219 12.92886719 49.75257812 12.9375 50.75 C12.94201172 51.73355469 12.94652344 52.71710937 12.95117188 53.73046875 C12.96293517 56.15370791 12.97937316 58.57682273 13 61 C12.01 60.67 11.02 60.34 10 60 C10 55.38 10 50.76 10 46 C9.34 46 8.68 46 8 46 C7.896875 45.38125 7.79375 44.7625 7.6875 44.125 C7 42 7 42 4 40 C6.64738916 38.5393715 7.89448334 38 11 38 C11.33 35.69 11.66 33.38 12 31 C9.36 30.67 6.72 30.34 4 30 C4 30.99 4 31.98 4 33 C5.65 33 7.3 33 9 33 C9 34.32 9 35.64 9 37 C7.02 37 5.04 37 3 37 C3 36.34 3 35.68 3 35 C2.34 34.67 1.68 34.34 1 34 C0 33 0 33 -0.11352539 29.85717773 C-0.11336633 28.46597303 -0.10767506 27.07476239 -0.09765625 25.68359375 C-0.0962413 24.95253922 -0.09482635 24.22148468 -0.09336853 23.46827698 C-0.08775408 21.12464368 -0.07519922 18.78110461 -0.0625 16.4375 C-0.05748686 14.85221492 -0.05292363 13.26692834 -0.04882812 11.68164062 C-0.03777997 7.7877239 -0.02050572 3.89387795 0 0 Z " fill="#F3EEE4" transform="translate(0,0)"/>
<path d="M0 0 C0.66 0.33 1.32 0.66 2 1 C1.67 1.66 1.34 2.32 1 3 C0.34 3 -0.32 3 -1 3 C-1 3.66 -1 4.32 -1 5 C-3.9852498 7.9852498 -7.12639767 8.63335086 -11.09765625 9.54296875 C-13.33567933 10.08064575 -15.12212218 10.64792797 -17 12 C-17.75 14.125 -17.75 14.125 -18 16 C-17.01 15.67 -16.02 15.34 -15 15 C-12 17 -12 17 -11 19 C-11.66 19.99 -12.32 20.98 -13 22 C-14.91091919 22.36076355 -14.91091919 22.36076355 -17.26611328 22.34057617 C-18.14687531 22.34034958 -19.02763733 22.34012299 -19.93508911 22.33988953 C-20.88721283 22.32440567 -21.83933655 22.30892181 -22.8203125 22.29296875 C-23.79410858 22.28872391 -24.76790466 22.28447906 -25.77120972 22.28010559 C-28.88941805 22.26327786 -32.00698617 22.22561811 -35.125 22.1875 C-37.23566777 22.17245846 -39.34634564 22.15876914 -41.45703125 22.14648438 C-46.63824023 22.11336109 -51.81907439 22.06312151 -57 22 C-58 17.25 -58 17.25 -58 15 C-54.7 14.34 -51.4 13.68 -48 13 C-48 13.66 -48 14.32 -48 15 C-46.906875 14.814375 -45.81375 14.62875 -44.6875 14.4375 C-41 14 -41 14 -38 15 C-35.73828125 14.87890625 -35.73828125 14.87890625 -33.3125 14.5625 C-32.50425781 14.46066406 -31.69601563 14.35882813 -30.86328125 14.25390625 C-30.24839844 14.17011719 -29.63351563 14.08632812 -29 14 C-29 13.34 -29 12.68 -29 12 C-28.34 12 -27.68 12 -27 12 C-27.66 10.02 -28.32 8.04 -29 6 C-29.825 5.835 -29.825 5.835 -34 5 C-31 4 -31 4 -28.6875 5.125 C-25.62427312 7.26213503 -22.83091206 9.56409892 -20 12 C-19.62230469 11.54109375 -19.24460938 11.0821875 -18.85546875 10.609375 C-13.92049589 5.10809378 -8.96164247 3.14737231 -2 1 C-1.34 0.67 -0.68 0.34 0 0 Z " fill="#F1EBE0" transform="translate(75,86)"/>
<path d="M0 0 C5.75 1.875 5.75 1.875 8 3 C8 2.34 8 1.68 8 1 C8.66 1 9.32 1 10 1 C9.67 1.99 9.34 2.98 9 4 C7 4.625 7 4.625 5 5 C4.67 5.33 4.34 5.66 4 6 C4.66 6 5.32 6 6 6 C7.25 12.625 7.25 12.625 5 16 C5 16.66 5 17.32 5 18 C4.175 18.165 4.175 18.165 0 19 C1 22 1 22 2 24 C1.34 24.33 0.68 24.66 0 25 C0.33 26.32 0.66 27.64 1 29 C0.01 29 -0.98 29 -2 29 C-2 27.68 -2 26.36 -2 25 C-2.66 25 -3.32 25 -4 25 C-4 25.99 -4 26.98 -4 28 C-4.99 27.67 -5.98 27.34 -7 27 C-7 26.01 -7 25.02 -7 24 C-8.98 23.67 -8.98 23.67 -19 22 C-19 20.02 -19 18.04 -19 16 C-18.01 16 -17.02 16 -16 16 C-17.65 15.67 -19.3 15.34 -21 15 C-21 13 -21 13 -19.75 11.4375 C-18 10 -18 10 -16.125 9.5625 C-14 9 -14 9 -11.6875 7 C-8.43549601 4.579904 -5.98979394 4.31292501 -2 4 C-2 3.34 -2 2.68 -2 2 C-1.34 2 -0.68 2 0 2 C0 1.34 0 0.68 0 0 Z " fill="#161615" transform="translate(83,37)"/>
<path d="M0 0 C5.43733055 4.52991796 10.46458931 9.34294216 15.4375 14.375 C16.16904297 15.11105469 16.90058594 15.84710938 17.65429688 16.60546875 C19.43852723 18.40136074 21.22036124 20.19955985 23 22 C22.34 22.66 21.68 23.32 21 24 C21.66 25.32 22.32 26.64 23 28 C21.1875 27.875 21.1875 27.875 19 27 C17.25 23.9375 17.25 23.9375 16 21 C13 22 13 22 12 24 C10.989375 23.896875 9.97875 23.79375 8.9375 23.6875 C3.78813259 24.09617995 1.94704558 25.77792197 -2 29 C-2.33 28.67 -2.66 28.34 -3 28 C-3.66 28.66 -4.32 29.32 -5 30 C-5.66 29.67 -6.32 29.34 -7 29 C-7.33 29.66 -7.66 30.32 -8 31 C-9 30 -9 30 -9.09765625 28.15234375 C-9.06510417 26.1015625 -9.03255208 24.05078125 -9 22 C-8.67 22.99 -8.34 23.98 -8 25 C-7.34 25 -6.68 25 -6 25 C-5.34 23.68 -4.68 22.36 -4 21 C-4.495 20.525625 -4.99 20.05125 -5.5 19.5625 C-7 18 -7 18 -7 17 C-6.04354056 10.31736889 -4.91480803 4.91480803 0 0 Z " fill="#0C0D0C" transform="translate(23,19)"/>
<path d="M0 0 C0.33 0.66 0.66 1.32 1 2 C1.66 2.33 2.32 2.66 3 3 C2.67854004 3.85158691 2.35708008 4.70317383 2.02587891 5.58056641 C0.96802313 9.10658449 0.6869781 12.03979577 0.5859375 15.7109375 C0.54726563 16.95488281 0.50859375 18.19882812 0.46875 19.48046875 C0.4378125 20.76566406 0.406875 22.05085938 0.375 23.375 C0.35566406 24.02919922 0.35566406 24.02919922 0.2578125 27.33984375 C0.16380043 30.55975716 0.07814179 33.7796688 0 37 C1.98 37 3.96 37 6 37 C0.27312296 42.87758433 0.27312296 42.87758433 -4.25 43.3125 C-8.63436813 42.94713599 -10.61562477 41.73973233 -14 39 C-14.33 38.34 -14.66 37.68 -15 37 C-13.02 37 -11.04 37 -9 37 C-9.33 26.44 -9.66 15.88 -10 5 C-7.69 5 -5.38 5 -3 5 C-2.67 5.33 -2.34 5.66 -2 6 C0 3 0 3 0 0 Z " fill="#E5E1D8" transform="translate(59,41)"/>
<path d="M0 0 C0.66 0.33 1.32 0.66 2 1 C2 2.98 2 4.96 2 7 C1.34 7 0.68 7 0 7 C0.61864407 13.55762712 0.61864407 13.55762712 2.5625 15.8125 C3.036875 16.204375 3.51125 16.59625 4 17 C4 17.66 4 18.32 4 19 C4.99 19 5.98 19 7 19 C7.33 19.66 7.66 20.32 8 21 C10.0625 22.125 10.0625 22.125 12 23 C11.62488281 23.43570312 11.24976562 23.87140625 10.86328125 24.3203125 C7.54140223 28.18607599 4.25357073 32.07657648 1 36 C0.34 34.68 -0.32 33.36 -1 32 C0.3125 30 0.3125 30 2 28 C2.99 28 3.98 28 5 28 C4.67 27.01 4.34 26.02 4 25 C4 24.34 4 23.68 4 23 C3.01 23 2.02 23 1 23 C0.67 23.99 0.34 24.98 0 26 C-0.99 25.34 -1.98 24.68 -3 24 C-2.34 22.35 -1.68 20.7 -1 19 C-1.60328125 18.97421875 -2.2065625 18.9484375 -2.828125 18.921875 C-6.61890228 18.6528521 -9.31177634 18.43643452 -12.5625 16.375 C-14.59145852 13.02280766 -14.54964081 10.84748569 -14 7 C-12.5 4.625 -12.5 4.625 -10 3 C-7.33805858 2.47392462 -4.70696819 2.26196466 -2 2 C-1.34 1.34 -0.68 0.68 0 0 Z M2 26 C4 27 4 27 4 27 Z " fill="#EFEAE1" transform="translate(62,7)"/>
<path d="M0 0 C0.66 0 1.32 0 2 0 C2.8125 1.6875 2.8125 1.6875 3 4 C1.35511706 5.68816933 -0.31337542 7.35353315 -2 9 C-2.9375 11.6875 -2.9375 11.6875 -3 14 C-2.34 14.66 -1.68 15.32 -1 16 C-1.33 16.99 -1.66 17.98 -2 19 C-2.99 19 -3.98 19 -5 19 C-5.33 19.825 -5.33 19.825 -7 24 C-7.66 24 -8.32 24 -9 24 C-9 25.32 -9 26.64 -9 28 C-8.34 28.33 -7.68 28.66 -7 29 C-7.33 29.99 -7.66 30.98 -8 32 C-7.236875 32 -6.47375 32 -5.6875 32 C-3.79166667 32 -1.89583333 32 0 32 C0.165 32.825 0.165 32.825 1 37 C0.67 36.34 0.34 35.68 0 35 C-0.804375 35.020625 -1.60875 35.04125 -2.4375 35.0625 C-5 35 -5 35 -6 34 C-6.66 34.66 -7.32 35.32 -8 36 C-8.29132813 35.0821875 -8.58265625 34.164375 -8.8828125 33.21875 C-11.30851894 25.9568867 -13.7922108 19.76257087 -19 14 C-19.44730469 14.38671875 -19.89460938 14.7734375 -20.35546875 15.171875 C-23.8521026 18.18390075 -27.37407463 21.14321031 -31 24 C-31.33 22.68 -31.66 21.36 -32 20 C-31.34 20 -30.68 20 -30 20 C-30 18.35 -30 16.7 -30 15 C-29.34 15 -28.68 15 -28 15 C-28 15.66 -28 16.32 -28 17 C-27.34 17 -26.68 17 -26 17 C-25.7525 16.401875 -25.505 15.80375 -25.25 15.1875 C-23.83629988 12.71352479 -22.34944617 11.56629745 -20 10 C-20 10.66 -20 11.32 -20 12 C-16.625 12.625 -16.625 12.625 -13 13 C-12.34 12.34 -11.68 11.68 -11 11 C-11 11.66 -11 12.32 -11 13 C-4.95057034 9.56653992 -4.95057034 9.56653992 -3 7 C-3 5.68 -3 4.36 -3 3 C-2.34 3 -1.68 3 -1 3 C-0.67 2.01 -0.34 1.02 0 0 Z " fill="#F2EDE3" transform="translate(105,6)"/>
<path d="M0 0 C0.33 0.66 0.66 1.32 1 2 C0.01 2 -0.98 2 -2 2 C-1.814375 2.61875 -1.62875 3.2375 -1.4375 3.875 C-1 6 -1 6 -2 8 C-1.38511719 7.97679687 -0.77023438 7.95359375 -0.13671875 7.9296875 C0.67152344 7.91164063 1.47976562 7.89359375 2.3125 7.875 C3.11300781 7.85179687 3.91351563 7.82859375 4.73828125 7.8046875 C7 8 7 8 10 10 C10.33 10.99 10.66 11.98 11 13 C11.66 13.33 12.32 13.66 13 14 C13 13.01 13 12.02 13 11 C13.66 11 14.32 11 15 11 C15 12.32 15 13.64 15 15 C15.99 15.33 16.98 15.66 18 16 C17.67 16.99 17.34 17.98 17 19 C15.68 19 14.36 19 13 19 C13 19.66 13 20.32 13 21 C13.99 20.67 14.98 20.34 16 20 C15.67 21.32 15.34 22.64 15 24 C14.67 23.34 14.34 22.68 14 22 C13.34 22 12.68 22 12 22 C11.67 24.31 11.34 26.62 11 29 C10.34 29 9.68 29 9 29 C8.67 28.34 8.34 27.68 8 27 C7.34 27 6.68 27 6 27 C5.875 20.375 5.875 20.375 7 17 C4.57498366 17.47153095 2.18892739 17.94602074 -0.1875 18.625 C-2 19 -2 19 -4 18 C-4 12.39 -4 6.78 -4 1 C-2.68 0.67 -1.36 0.34 0 0 Z " fill="#070807" transform="translate(66,51)"/>
<path d="M0 0 C0.66 0.66 1.32 1.32 2 2 C2.680625 2.165 3.36125 2.33 4.0625 2.5 C4.701875 2.665 5.34125 2.83 6 3 C6.33 3.66 6.66 4.32 7 5 C6.67 5.66 6.34 6.32 6 7 C7.65 7.33 9.3 7.66 11 8 C11 8.66 11 9.32 11 10 C12.65 9.67 14.3 9.34 16 9 C16.33 8.01 16.66 7.02 17 6 C18.22160223 9.6648067 17.63002724 10.48631684 16.125 13.9375 C14.02585857 18.80369149 12.86987467 22.65944554 12.90234375 27.984375 C12.90556641 28.91894531 12.90878906 29.85351562 12.91210938 30.81640625 C12.92048828 31.78449219 12.92886719 32.75257812 12.9375 33.75 C12.94201172 34.73355469 12.94652344 35.71710937 12.95117188 36.73046875 C12.96293517 39.15370791 12.97937316 41.57682273 13 44 C12.01 43.67 11.02 43.34 10 43 C10 38.38 10 33.76 10 29 C9.34 29 8.68 29 8 29 C7.896875 28.38125 7.79375 27.7625 7.6875 27.125 C7 25 7 25 4 23 C6.64738916 21.5393715 7.89448334 21 11 21 C11.33 18.69 11.66 16.38 12 14 C9.36 13.67 6.72 13.34 4 13 C4 13.99 4 14.98 4 16 C5.65 16 7.3 16 9 16 C9 17.32 9 18.64 9 20 C7.02 20 5.04 20 3 20 C3 19.34 3 18.68 3 18 C2.34 17.67 1.68 17.34 1 17 C0 16 0 16 -0.09765625 12.40234375 C-0.0909822 10.91403133 -0.07902183 9.42573568 -0.0625 7.9375 C-0.05798828 7.17888672 -0.05347656 6.42027344 -0.04882812 5.63867188 C-0.0370068 3.75908129 -0.01907078 1.87953101 0 0 Z " fill="#F3EEE4" transform="translate(0,17)"/>
<path d="M0 0 C0.33 0.66 0.66 1.32 1 2 C1.99 2.33 2.98 2.66 4 3 C5.33333333 4.33333333 6.66666667 5.66666667 8 7 C9.63978318 8.04349839 11.30094366 9.05607981 13 10 C12.505 9.54625 12.01 9.0925 11.5 8.625 C10 7 10 7 10 5 C10.515625 5.37125 11.03125 5.7425 11.5625 6.125 C15.12352451 7.40331649 17.5174232 6.20550735 21 5 C21 4.34 21 3.68 21 3 C23.31 3 25.62 3 28 3 C28 3.33 28 3.66 28 4 C26.35 4.33 24.7 4.66 23 5 C26.22297225 7.51549054 28.41591337 8.91655905 32.5 9.5 C36.58408663 8.91655905 38.77702775 7.51549054 42 5 C41.175 4.835 41.175 4.835 37 4 C37 3.67 37 3.34 37 3 C43.34375 2.51201923 43.34375 2.51201923 46.4375 4.8125 C48 7 48 7 48 10 C46.35 10.33 44.7 10.66 43 11 C43 11.66 43 12.32 43 13 C41.68 13 40.36 13 39 13 C39 12.34 39 11.68 39 11 C38.34 11.33 37.68 11.66 37 12 C31.98640045 12.54129128 28.19752606 12.76641668 23.875 10 C23.25625 9.34 22.6375 8.68 22 8 C21.34 8.33 21.34 8.33 18 10 C18.33 10.33 18.66 10.66 19 11 C19.33 11.99 19.66 12.98 20 14 C20.99 14.33 21.98 14.66 23 15 C19.35460017 15.96703602 17.49798372 16.20637163 13.96484375 14.7421875 C3.02138513 7.99254463 3.02138513 7.99254463 0 4 C0 2.68 0 1.36 0 0 Z " fill="#141413" transform="translate(22,74)"/>
<path d="M0 0 C-0.33 2.31 -0.66 4.62 -1 7 C0.65 6.01 2.3 5.02 4 4 C4.99 4.66 5.98 5.32 7 6 C6.34 6.66 5.68 7.32 5 8 C5 8.66 5 9.32 5 10 C4.360625 10.20625 3.72125 10.4125 3.0625 10.625 C1 12 1 12 0.375 15.0625 C0.25125 16.031875 0.1275 17.00125 0 18 C-0.66 18.33 -1.32 18.66 -2 19 C-2.625 21.5625 -2.625 21.5625 -3 24 C-7.75 23.125 -7.75 23.125 -10 22 C-10.99 21.67 -11.98 21.34 -13 21 C-13 19.35 -13 17.7 -13 16 C-12.01 15.67 -11.02 15.34 -10 15 C-10.33 14.01 -10.66 13.02 -11 12 C-9 9 -9 9 -7 8 C-6.875 5.625 -6.875 5.625 -7 3 C-7.66 2.34 -8.32 1.68 -9 1 C-5.8035914 -0.06546953 -3.34252724 -0.07427838 0 0 Z " fill="#F4EFE5" transform="translate(62,25)"/>
<path d="M0 0 C0.37125 0.33 0.37125 0.33 2.25 2 C6.94531961 5.22094389 12.55789549 4.3170158 18 4 C18 4.66 18 5.32 18 6 C19.32 6 20.64 6 22 6 C22 5.34 22 4.68 22 4 C22.825 4.165 22.825 4.165 27 5 C24 7 24 7 21 8 C22.32 8.33 23.64 8.66 25 9 C24.4946875 9.185625 24.4946875 9.185625 21.9375 10.125 C17.59899846 11.95779555 14.40426247 14.80268358 11 18 C10.56429687 17.51789063 10.12859375 17.03578125 9.6796875 16.5390625 C6.03702931 12.67563714 3.35729937 10.17599254 -2 9 C-2 8.01 -2 7.02 -2 6 C-2.66 5.67 -3.32 5.34 -4 5 C-2.68 3.35 -1.36 1.7 0 0 Z " fill="#050505" transform="translate(43,81)"/>
<path d="M0 0 C5.43733055 4.52991796 10.46458931 9.34294216 15.4375 14.375 C16.16904297 15.11105469 16.90058594 15.84710938 17.65429688 16.60546875 C19.43852723 18.40136074 21.22036124 20.19955985 23 22 C22.34 22.66 21.68 23.32 21 24 C21.66 25.32 22.32 26.64 23 28 C21.125 27.6875 21.125 27.6875 19 27 C17 24 17 24 17 20 C14 19 14 19 12 19 C11.67 18.67 11.34 18.34 11 18 C9.65938457 18.30271961 8.32594105 18.63837971 7 19 C6.34 19 5.68 19 5 19 C5 18.34 5 17.68 5 17 C4.34 16.67 3.68 16.34 3 16 C4.98 15.34 6.96 14.68 9 14 C8.01 14 7.02 14 6 14 C5.34 14 4.68 14 4 14 C3.34 11.69 2.68 9.38 2 7 C1.34 7.99 1.34 7.99 -2 13 C-1.34 13 -0.68 13 0 13 C0 13.66 0 14.32 0 15 C-0.99 15 -1.98 15 -3 15 C-5.0431433 9.71186441 -5.0431433 9.71186441 -4.875 6.9375 C-3.66459311 4.25731332 -1.91001058 2.2180768 0 0 Z " fill="#0C0C0C" transform="translate(23,19)"/>
<path d="M0 0 C0.66 0.33 1.32 0.66 2 1 C1.67 1.66 1.34 2.32 1 3 C0.34 3 -0.32 3 -1 3 C-1 3.66 -1 4.32 -1 5 C-3.9852498 7.9852498 -7.12639767 8.63335086 -11.09765625 9.54296875 C-13.33567933 10.08064575 -15.12212218 10.64792797 -17 12 C-17.75 14.125 -17.75 14.125 -18 16 C-17.01 15.67 -16.02 15.34 -15 15 C-12 17 -12 17 -11 19 C-11.66 19.99 -12.32 20.98 -13 22 C-15.8203125 22.29296875 -15.8203125 22.29296875 -19.125 22.1875 C-20.22070312 22.16042969 -21.31640625 22.13335937 -22.4453125 22.10546875 C-23.28835937 22.07066406 -24.13140625 22.03585938 -25 22 C-24.67 21.01 -24.34 20.02 -24 19 C-23.01 18.67 -22.02 18.34 -21 18 C-21 17.34 -21 16.68 -21 16 C-23.64 16 -26.28 16 -29 16 C-29 14.68 -29 13.36 -29 12 C-28.34 12 -27.68 12 -27 12 C-27.66 10.02 -28.32 8.04 -29 6 C-30.65 5.67 -32.3 5.34 -34 5 C-31 4 -31 4 -28.6875 5.125 C-25.62427312 7.26213503 -22.83091206 9.56409892 -20 12 C-19.62230469 11.54109375 -19.24460937 11.0821875 -18.85546875 10.609375 C-13.92049589 5.10809378 -8.96164247 3.14737231 -2 1 C-1.34 0.67 -0.68 0.34 0 0 Z " fill="#F1EBE1" transform="translate(75,86)"/>
<path d="M0 0 C5.56701031 2.88659794 5.56701031 2.88659794 6.875 6.25 C6.91625 6.8275 6.9575 7.405 7 8 C2.13167558 11.1793139 -1.00731871 12.87166273 -7 12 C-10.4375 10 -10.4375 10 -13 8 C-12.68151851 5.02750614 -11.96374181 3.96160897 -9.875 1.75 C-6.20572955 -0.48346897 -4.23724719 -0.59470136 0 0 Z " fill="#F4EFE6" transform="translate(81,42)"/>
<path d="M0 0 C2.3199818 1.47033934 4.01466709 3.06308985 6 5 C5.69611836 7.93752254 5.19330344 8.84080893 2.875 10.75 C-0.75335313 12.32754484 -3.07198597 12.48238769 -7 12 C-10.4375 10 -10.4375 10 -13 8 C-12.68151851 5.02750614 -11.96374181 3.96160897 -9.875 1.75 C-6.18496736 -0.49610683 -4.25830478 -0.67236391 0 0 Z " fill="#DCD8D0" transform="translate(35,42)"/>
<path d="M0 0 C-0.33 1.32 -0.66 2.64 -1 4 C-0.01 3.67 0.98 3.34 2 3 C0.93447796 11.96508199 -2.0687107 17.26048091 -8.5625 23.4375 C-11.10916514 25.06997766 -13.01324822 25.65865694 -16 26 C-15 23 -15 23 -12.9375 21.125 C-11 19 -11 19 -10.75 16.25 C-10.8325 15.5075 -10.915 14.765 -11 14 C-11.66 14 -12.32 14 -13 14 C-13 13.34 -13 12.68 -13 12 C-11.68 12 -10.36 12 -9 12 C-8.67 10.68 -8.34 9.36 -8 8 C-6.35 7.67 -4.7 7.34 -3 7 C-3.33 5.68 -3.66 4.36 -4 3 C-4.66 3 -5.32 3 -6 3 C-6 2.34 -6 1.68 -6 1 C-4 0 -4 0 0 0 Z " fill="#121212" transform="translate(92,58)"/>
<path d="M0 0 C0.33 0 0.66 0 1 0 C1.02725341 1.7290774 1.04650987 3.45828176 1.0625 5.1875 C1.07410156 6.15042969 1.08570312 7.11335938 1.09765625 8.10546875 C1.00486622 10.85576513 0.62111685 13.32479591 0 16 C0.66 16 1.32 16 2 16 C1.979375 16.9075 1.95875 17.815 1.9375 18.75 C1.9889755 21.42672588 2.2215017 23.46988052 3 26 C2.34 26 1.68 26 1 26 C1.75 31.75 1.75 31.75 4 34 C3.01 34.99 2.02 35.98 1 37 C0.566875 36.360625 0.13375 35.72125 -0.3125 35.0625 C-2 33 -2 33 -5 32 C-5 33.32 -5 34.64 -5 36 C-7.70879335 37.35439668 -10.00933268 37.06501451 -13 37 C-12.54109375 36.33355469 -12.0821875 35.66710937 -11.609375 34.98046875 C-4.04325827 23.61539845 -1.3723863 13.3807664 0 0 Z " fill="#E7E2D9" transform="translate(98,43)"/>
<path d="M0 0 C5.36492945 2.38441309 6.88154408 5.83060543 9 11 C9.30164063 11.70511719 9.60328125 12.41023438 9.9140625 13.13671875 C12.61987737 20.1794238 13.107104 27.71009987 11 35 C10.34 35 9.68 35 9 35 C8.33093739 31.06925719 7.96108381 27.42653662 8.0625 23.4375 C8.12165399 19.59906335 7.47072931 16.58490269 6 13 C5.34 13 4.68 13 4 13 C4 12.34 4 11.68 4 11 C3.01 10.67 2.02 10.34 1 10 C0.835 9.175 0.835 9.175 0 5 C-1.32 5 -2.64 5 -4 5 C-3.34 5.33 -2.68 5.66 -2 6 C-2.6875 7.9375 -2.6875 7.9375 -4 10 C-6.625 10.75 -6.625 10.75 -9 11 C-8.84518205 8.29068581 -8.51827919 6.53415961 -6.59765625 4.5546875 C-5.10228292 3.32320358 -3.5537076 2.1570163 -2 1 C-1.34 1.33 -0.68 1.66 0 2 C0 1.34 0 0.68 0 0 Z " fill="#1D1D1C" transform="translate(86,22)"/>
<path d="M0 0 C0.28875 0.598125 0.5775 1.19625 0.875 1.8125 C2 4 2 4 4 7 C4.66 7 5.32 7 6 7 C5.34 5.35 4.68 3.7 4 2 C5.875 2.125 5.875 2.125 8 3 C9.25 6.0625 9.25 6.0625 10 9 C9.67 9.33 9.34 9.66 9 10 C8.91241997 11.99964982 8.89303424 14.0023611 8.90234375 16.00390625 C8.90556641 17.21884766 8.90878906 18.43378906 8.91210938 19.68554688 C8.92048828 20.96494141 8.92886719 22.24433594 8.9375 23.5625 C8.94201172 24.84576172 8.94652344 26.12902344 8.95117188 27.45117188 C8.96300455 30.63416022 8.97948932 33.81705762 9 37 C7.68 37 6.36 37 5 37 C5 35.35 5 33.7 5 32 C3.35 32 1.7 32 0 32 C-0.33 31.34 -0.66 30.68 -1 30 C1.33294775 29.95758277 3.66702567 29.95907063 6 30 C6.33 30.33 6.66 30.66 7 31 C6.979375 30.05125 6.95875 29.1025 6.9375 28.125 C7 25 7 25 8 23 C7.34 23 6.68 23 6 23 C5.67 21.68 5.34 20.36 5 19 C5.66 19.33 6.32 19.66 7 20 C7 19.34 7 18.68 7 18 C6.34 17.67 5.68 17.34 5 17 C4.67 16.01 4.34 15.02 4 14 C4.99 13.67 5.98 13.34 7 13 C6.34 12.34 5.68 11.68 5 11 C4.071875 11.845625 3.14375 12.69125 2.1875 13.5625 C0.60546875 15.00390625 0.60546875 15.00390625 -1 16 C-1.99 15.67 -2.98 15.34 -4 15 C-2.35 13.68 -0.7 12.36 1 11 C0.42647107 7.12867972 -1.48704352 4.91827204 -4 2 C-2.68 1.34 -1.36 0.68 0 0 Z " fill="#1A1919" transform="translate(39,39)"/>
<path d="M0 0 C1.9375 1.0625 1.9375 1.0625 3 3 C3.36528977 6.4093712 3.6140629 8.88023824 1.9375 11.9375 C-1.11976176 13.6140629 -3.5906288 13.36528977 -7 13 C-8.9375 11.9375 -8.9375 11.9375 -10 10 C-10.36528977 6.5906288 -10.6140629 4.11976176 -8.9375 1.0625 C-5.88023824 -0.6140629 -3.4093712 -0.36528977 0 0 Z " fill="#785224" transform="translate(58,11)"/>
<path d="M0 0 C2.75439516 2.75439516 2.30989276 4.46603203 2.4140625 8.3203125 C2.45273437 9.57714844 2.49140625 10.83398438 2.53125 12.12890625 C2.5621875 13.44761719 2.593125 14.76632813 2.625 16.125 C2.66318029 17.46486918 2.70223206 18.80471383 2.7421875 20.14453125 C2.8367203 23.42954619 2.92227156 26.71455138 3 30 C3 29.34 3 28.68 3 28 C3 25.66666667 3 23.33333333 3 21 C3.99 21 4.98 21 6 21 C6.165 18.03 6.165 18.03 7 3 C7.33 3 7.66 3 8 3 C8.02469081 7.3782512 8.04285557 11.75646567 8.05493164 16.13476562 C8.05996514 17.62468166 8.06679242 19.11459274 8.07543945 20.60449219 C8.08754805 22.74415304 8.09323807 24.88374868 8.09765625 27.0234375 C8.10289307 28.31169434 8.10812988 29.59995117 8.11352539 30.92724609 C8 34 8 34 7 36 C4.69 35.67 2.38 35.34 0 35 C0 23.33333333 0 11.66666667 0 0 Z " fill="#F9F4EB" transform="translate(50,47)"/>
<path d="M0 0 C0.33 0.66 0.66 1.32 1 2 C1.66 2.33 2.32 2.66 3 3 C2.67854004 3.85158691 2.35708008 4.70317383 2.02587891 5.58056641 C0.96802313 9.10658449 0.6869781 12.03979577 0.5859375 15.7109375 C0.54726563 16.95488281 0.50859375 18.19882812 0.46875 19.48046875 C0.4378125 20.76566406 0.406875 22.05085938 0.375 23.375 C0.35566406 24.02919922 0.35566406 24.02919922 0.2578125 27.33984375 C0.16380043 30.55975716 0.07814179 33.7796688 0 37 C1.98 37 3.96 37 6 37 C0.27312296 42.87758433 0.27312296 42.87758433 -4.25 43.3125 C-8.63436813 42.94713599 -10.61562477 41.73973233 -14 39 C-14.33 38.34 -14.66 37.68 -15 37 C-13.02 37 -11.04 37 -9 37 C-9 37.99 -9 38.98 -9 40 C-6.69 40.66 -4.38 41.32 -2 42 C-2 33.09 -2 24.18 -2 15 C-2.33 15 -2.66 15 -3 15 C-3.66 12.36 -4.32 9.72 -5 7 C-3.68 6.67 -2.36 6.34 -1 6 C-0.67 4.02 -0.34 2.04 0 0 Z " fill="#D6D1CA" transform="translate(59,41)"/>
<path d="M0 0 C0.66 0 1.32 0 2 0 C2.33 6.93 2.66 13.86 3 21 C4.32 20.67 5.64 20.34 7 20 C7.33 19.34 7.66 18.68 8 18 C8.99 18.66 9.98 19.32 11 20 C10.34 20 9.68 20 9 20 C9.33 20.99 9.66 21.98 10 23 C10.66 23.33 11.32 23.66 12 24 C12 25.65 12 27.3 12 29 C11.34 29.33 10.68 29.66 10 30 C10 29.34 10 28.68 10 28 C9.01 27.67 8.02 27.34 7 27 C7 26.34 7 25.68 7 25 C4.69 25 2.38 25 0 25 C0 16.75 0 8.5 0 0 Z " fill="#010101" transform="translate(59,52)"/>
<path d="M0 0 C0.99 0.33 1.98 0.66 3 1 C2.01 3.64 1.02 6.28 0 9 C0.66 9.33 1.32 9.66 2 10 C1.34 10.66 0.68 11.32 0 12 C0.99 12.99 1.98 13.98 3 15 C1.625 16.5 1.625 16.5 0 18 C-0.66 18 -1.32 18 -2 18 C-2 20.97 -2 23.94 -2 27 C-0.02 27 1.96 27 4 27 C4.33 27.66 4.66 28.32 5 29 C4.67 29.66 4.34 30.32 4 31 C2.35 30.67 0.7 30.34 -1 30 C-1.66 31.32 -2.32 32.64 -3 34 C-6.44631488 22.25256145 -5.45059717 10.90119434 0 0 Z " fill="#171616" transform="translate(17,26)"/>
<path d="M0 0 C2 0 2 0 3.25 1.1875 C3.53875 1.4865625 3.53875 1.4865625 5 3 C6.05763964 3.86017751 7.12051954 4.71393672 8.1875 5.5625 C8.6515625 5.9646875 8.6515625 5.9646875 11 8 C11 8.66 11 9.32 11 10 C11.66 10 12.32 10 13 10 C13 10.66 13 11.32 13 12 C13.66 12 14.32 12 15 12 C15.474375 12.639375 15.94875 13.27875 16.4375 13.9375 C18 16 18 16 21 17 C21.6875 19.0625 21.6875 19.0625 22 21 C19 21 19 21 17.19067383 19.53125 C16.53607178 18.8609375 15.88146973 18.190625 15.20703125 17.5 C14.85092773 17.1390625 14.85092773 17.1390625 13.04882812 15.3125 C12.31083984 14.549375 11.57285156 13.78625 10.8125 13 C10.43770508 12.6184375 10.43770508 12.6184375 8.54101562 10.6875 C6.68713177 8.79819161 4.84058931 6.90224794 3 5 C2.01 5.825 2.01 5.825 -3 10 C-2.25 2.25 -2.25 2.25 0 0 Z M22 19 C22.66 19 23.32 19 24 19 C23.67 19.66 23.34 20.32 23 21 C22.67 20.34 22.34 19.68 22 19 Z " fill="#E6E2D9" transform="translate(21,15)"/>
<path d="M0 0 C0.33 0 0.66 0 1 0 C1.33 4.95 1.66 9.9 2 15 C3.65 14.67 5.3 14.34 7 14 C7 14.66 7 15.32 7 16 C7.99 15.67 8.98 15.34 10 15 C11.67422986 15.29299023 13.34178227 15.62690101 15 16 C15.99 16 16.98 16 18 16 C18 16.66 18 17.32 18 18 C14.25 19.125 14.25 19.125 12 18 C12 18.66 12 19.32 12 20 C12.66 20.33 13.32 20.66 14 21 C13.67 21.66 13.34 22.32 13 23 C12.175 22.67 12.175 22.67 8 21 C8.33 20.34 8.66 19.68 9 19 C7.68 19 6.36 19 5 19 C5.33 19.99 5.66 20.98 6 22 C6.66 22.33 7.32 22.66 8 23 C7.34 23 6.68 23 6 23 C5.67 23.66 5.34 24.32 5 25 C4.67 24.01 4.34 23.02 4 22 C3.34 22.33 2.68 22.66 2 23 C0.22589949 17.68468311 -0.2577668 13.14381195 -0.125 7.5625 C-0.12048828 7.19672852 -0.12048828 7.19672852 -0.09765625 5.34570312 C-0.07436153 3.56365702 -0.0385019 1.78178241 0 0 Z " fill="#020202" transform="translate(12,41)"/>
<path d="M0 0 C0.66 0 1.32 0 2 0 C1.8570752 0.59280762 1.71415039 1.18561523 1.56689453 1.79638672 C0.11134006 8.32667783 -0.24685613 14.45103325 -0.125 21.125 C-0.11597656 22.08148438 -0.10695313 23.03796875 -0.09765625 24.0234375 C-0.07439827 26.34923525 -0.04172213 28.67447294 0 31 C-0.99 30.67 -1.98 30.34 -3 30 C-3 25.38 -3 20.76 -3 16 C-3.66 16 -4.32 16 -5 16 C-5.0515625 15.690625 -5.0515625 15.690625 -5.3125 14.125 C-6 12 -6 12 -9 10 C-6.35261084 8.5393715 -5.10551666 8 -2 8 C-1.9278125 7.525625 -1.9278125 7.525625 -1.5625 5.125 C-1 2 -1 2 0 0 Z " fill="#F1EBE3" transform="translate(13,30)"/>
<path d="M0 0 C2.84249384 2.84249384 2 5.15984574 2 9 C3.98 8.34 5.96 7.68 8 7 C8 7.99 8 8.98 8 10 C7.34 10.66 6.68 11.32 6 12 C5.67 11.34 5.34 10.68 5 10 C4.01 10.33 3.02 10.66 2 11 C2.33 11.99 2.66 12.98 3 14 C5.4375 13.625 5.4375 13.625 8 13 C8.33 12.34 8.66 11.68 9 11 C9.66 11.33 10.32 11.66 11 12 C11.66 12 12.32 12 13 12 C13.33 13.32 13.66 14.64 14 16 C13.18015625 15.98839844 12.3603125 15.97679687 11.515625 15.96484375 C10.43796875 15.95582031 9.3603125 15.94679688 8.25 15.9375 C7.18265625 15.92589844 6.1153125 15.91429687 5.015625 15.90234375 C2.46631499 15.98489913 0.42066409 16.25382442 -2 17 C-1.34 16.01 -0.68 15.02 0 14 C-0.33 13.34 -0.66 12.68 -1 12 C-0.67 11.34 -0.34 10.68 0 10 C-0.66 10 -1.32 10 -2 10 C-2 9.34 -2 8.68 -2 8 C-2.66 8 -3.32 8 -4 8 C-2.66666667 5.33333333 -1.33333333 2.66666667 0 0 Z " fill="#030303" transform="translate(25,24)"/>
<path d="M0 0 C0.33 0.66 0.66 1.32 1 2 C3.5625 2.625 3.5625 2.625 6 3 C6.33 3.99 6.66 4.98 7 6 C7.66 6 8.32 6 9 6 C8.67 7.65 8.34 9.3 8 11 C7.401875 10.21625 6.80375 9.4325 6.1875 8.625 C4 6 4 6 1 4 C-2.3 7.3 -5.6 10.6 -9 14 C-9.66 12.68 -10.32 11.36 -11 10 C-10.34 10 -9.68 10 -9 10 C-9 8.35 -9 6.7 -9 5 C-8.34 5 -7.68 5 -7 5 C-7 5.66 -7 6.32 -7 7 C-6.34 7 -5.68 7 -5 7 C-4.731875 6.401875 -4.46375 5.80375 -4.1875 5.1875 C-3.01506533 3.02775192 -1.80630718 1.64209744 0 0 Z " fill="#EAE5DD" transform="translate(84,16)"/>
<path d="M0 0 C2.0625 0.4375 2.0625 0.4375 4 1 C4 1.99 4 2.98 4 4 C4.33 3.34 4.66 2.68 5 2 C6.65 2.33 8.3 2.66 10 3 C8.35 5.64 6.7 8.28 5 11 C3.989375 10.071875 2.97875 9.14375 1.9375 8.1875 C-1.52278876 5.20035276 -4.72631593 3.56992476 -9 2 C-9 1.67 -9 1.34 -9 1 C-7.700625 1.020625 -6.40125 1.04125 -5.0625 1.0625 C-3.70834367 1.08399454 -2.35243917 1.07148199 -1 1 C-0.67 0.67 -0.34 0.34 0 0 Z " fill="#0E0E0D" transform="translate(50,88)"/>
<path d="M0 0 C0 0.99 0 1.98 0 3 C0.31088368 4.67099977 0.64080332 6.33871537 1 8 C2.65 7.67 4.3 7.34 6 7 C3.03716687 9.38672669 0.05729491 11.7353371 -3 14 C-3.66 13.67 -4.32 13.34 -5 13 C-5.33 13.99 -5.66 14.98 -6 16 C-6.66 15.67 -7.32 15.34 -8 15 C-8 11 -8 11 -6.5 9.4375 C-6.005 8.963125 -5.51 8.48875 -5 8 C-5 7.01 -5 6.02 -5 5 C-2.5 2.3125 -2.5 2.3125 0 0 Z " fill="#060606" transform="translate(70,34)"/>
<path d="M0 0 C0.66 0.33 1.32 0.66 2 1 C1.67 1.66 1.34 2.32 1 3 C0.34 3 -0.32 3 -1 3 C-1 3.66 -1 4.32 -1 5 C-3.98246554 7.98246554 -7.06352047 8.59170278 -11.03515625 9.45703125 C-13.64740991 10.17890652 -15.70799915 11.58435241 -18 13 C-18.66 12.67 -19.32 12.34 -20 12 C-14.82978336 5.71809856 -9.67401527 3.36710919 -2 1 C-1.34 0.67 -0.68 0.34 0 0 Z " fill="#E2DDD5" transform="translate(75,86)"/>
<path d="M0 0 C2.375 2.5 2.375 2.5 4 5 C2 7 2 7 -0.5625 7.1875 C-3 7 -3 7 -4 6 C-4.33 6.66 -4.66 7.32 -5 8 C-6.65 7.67 -8.3 7.34 -10 7 C-10 6.34 -10 5.68 -10 5 C-9.34 5 -8.68 5 -8 5 C-8.33 4.01 -8.66 3.02 -9 2 C-5.50434664 -0.33043558 -4.1134271 -0.58763244 0 0 Z " fill="#F4EFE5" transform="translate(35,44)"/>
<path d="M0 0 C0.33 0.66 0.66 1.32 1 2 C1.99 2.33 2.98 2.66 4 3 C5.33333333 4.33333333 6.66666667 5.66666667 8 7 C9.63978318 8.04349839 11.30094366 9.05607981 13 10 C12.505 9.54625 12.01 9.0925 11.5 8.625 C10 7 10 7 10 5 C10.2990625 5.1546875 10.2990625 5.1546875 11.8125 5.9375 C14 7 14 7 17 8 C16.67 9.98 16.34 11.96 16 14 C11.84551354 13.46322564 9.54037665 12.19850793 6.3125 9.5625 C5.54550781 8.94503906 4.77851563 8.32757813 3.98828125 7.69140625 C2 6 2 6 0 4 C0 2.68 0 1.36 0 0 Z " fill="#151414" transform="translate(22,74)"/>
<path d="M0 0 C0.66 1.32 1.32 2.64 2 4 C2.763125 3.9175 3.52625 3.835 4.3125 3.75 C7 4 7 4 8.8125 6 C9.204375 6.66 9.59625 7.32 10 8 C9.01 8.99 8.02 9.98 7 11 C6.566875 10.360625 6.13375 9.72125 5.6875 9.0625 C4 7 4 7 1 6 C1 7.32 1 8.64 1 10 C-1 11 -1 11 -7 11 C-4.69 7.37 -2.38 3.74 0 0 Z " fill="#EEE9E0" transform="translate(92,69)"/>
<path d="M0 0 C0.33 0 0.66 0 1 0 C1 8.91 1 17.82 1 27 C-0.32 27 -1.64 27 -3 27 C-3 25.35 -3 23.7 -3 22 C-4.65 22 -6.3 22 -8 22 C-8.33 21.34 -8.66 20.68 -9 20 C-6.66705225 19.95758277 -4.33297433 19.95907063 -2 20 C-1.67 20.33 -1.34 20.66 -1 21 C-1.020625 20.05125 -1.04125 19.1025 -1.0625 18.125 C-1 15 -1 15 0 13 C-0.66 13 -1.32 13 -2 13 C-2.33 11.68 -2.66 10.36 -3 9 C-2.34 9.33 -1.68 9.66 -1 10 C-1 9.34 -1 8.68 -1 8 C-1.66 7.67 -2.32 7.34 -3 7 C-3.33 6.01 -3.66 5.02 -4 4 C-3.01 4 -2.02 4 -1 4 C-0.67 2.68 -0.34 1.36 0 0 Z " fill="#1F1F1E" transform="translate(47,49)"/>
<path d="M0 0 C2 1.125 2 1.125 3 3 C2.6875 6.1875 2.6875 6.1875 2 9 C1.67 8.01 1.34 7.02 1 6 C-1.31 6.33 -3.62 6.66 -6 7 C-6 6.34 -6 5.68 -6 5 C-6.33 5 -6.66 5 -7 5 C-7 5.66 -7 6.32 -7 7 C-7.66 7 -8.32 7 -9 7 C-9.6875 5.1875 -9.6875 5.1875 -10 3 C-7.70976795 -1.00790609 -4.17804956 -0.44764817 0 0 Z " fill="#A57939" transform="translate(58,11)"/>
<path d="M0 0 C2.31 0 4.62 0 7 0 C7 0.33 7 0.66 7 1 C5.35 1.33 3.7 1.66 2 2 C3.32 3.32 4.64 4.64 6 6 C4 6 2 6 0 6 C-0.99 6.33 -1.98 6.66 -3 7 C-2.67 7.33 -2.34 7.66 -2 8 C-1.67 8.99 -1.34 9.98 -1 11 C-0.01 11.33 0.98 11.66 2 12 C0.02 12.33 -1.96 12.66 -4 13 C-5.125 11.25 -5.125 11.25 -6 9 C-5.125 6.75 -5.125 6.75 -4 5 C-4.66 5 -5.32 5 -6 5 C-6 4.34 -6 3.68 -6 3 C-4.02 2.67 -2.04 2.34 0 2 C0 1.34 0 0.68 0 0 Z " fill="#2E2D2C" transform="translate(43,77)"/>
<path d="M0 0 C1.32 0 2.64 0 4 0 C4 1.32 4 2.64 4 4 C4.66 4.33 5.32 4.66 6 5 C5.835 4.175 5.835 4.175 5 0 C6.65 0.33 8.3 0.66 10 1 C10.33 1.99 10.66 2.98 11 4 C11.33 4.66 11.66 5.32 12 6 C11.67 6.165 11.67 6.165 10 7 C10.33 8.32 10.66 9.64 11 11 C10.01 11 9.02 11 8 11 C8 9.68 8 8.36 8 7 C7.34 7 6.68 7 6 7 C6 7.99 6 8.98 6 10 C5.01 9.67 4.02 9.34 3 9 C3 8.01 3 7.02 3 6 C2.34 5.67 1.68 5.34 1 5 C1.33 3.68 1.66 2.36 2 1 C1.34 0.67 0.68 0.34 0 0 Z " fill="#191919" transform="translate(73,55)"/>
<path d="M0 0 C1.55693206 2.33539809 2.90200646 4.57968756 4.1875 7.0625 C4.55230469 7.75472656 4.91710938 8.44695312 5.29296875 9.16015625 C5.52628906 9.76730469 5.75960938 10.37445313 6 11 C5.67 11.66 5.34 12.32 5 13 C4.34 12.67 3.68 12.34 3 12 C3 12.66 3 13.32 3 14 C1.02 14.33 -0.96 14.66 -3 15 C-3 14.01 -3 13.02 -3 12 C-3.99 11.67 -4.98 11.34 -6 11 C-5.505 10.7421875 -5.505 10.7421875 -3 9.4375 C-2.01 8.633125 -1.02 7.82875 0 7 C0.375 3.25 0.375 3.25 0 0 Z " fill="#EEE9DF" transform="translate(13,61)"/>
<path d="M0 0 C3.3 0.33 6.6 0.66 10 1 C10.66 2.65 11.32 4.3 12 6 C11.34 6.33 11.34 6.33 8 8 C8.33 6.68 8.66 5.36 9 4 C7.35 4 5.7 4 4 4 C4 4.66 4 5.32 4 6 C4.66 6 5.32 6 6 6 C6.33 7.32 6.66 8.64 7 10 C5.35 10.33 3.7 10.66 2 11 C1.34 9.35 0.68 7.7 0 6 C0.99 6 1.98 6 3 6 C2.01 5.34 1.02 4.68 0 4 C0 2.68 0 1.36 0 0 Z " fill="#060706" transform="translate(82,55)"/>
<path d="M0 0 C0.33 0.99 0.66 1.98 1 3 C2.32 3 3.64 3 5 3 C5.33 2.01 5.66 1.02 6 0 C6.33 0.66 6.66 1.32 7 2 C6.67 2.66 6.34 3.32 6 4 C6.99 3.67 7.98 3.34 9 3 C8.67 4.32 8.34 5.64 8 7 C7.67 6.34 7.34 5.68 7 5 C6.34 5 5.68 5 5 5 C4.67 7.31 4.34 9.62 4 12 C3.34 12 2.68 12 2 12 C1.67 11.34 1.34 10.68 1 10 C0.34 10 -0.32 10 -1 10 C-1.125 3.375 -1.125 3.375 0 0 Z " fill="#030403" transform="translate(73,68)"/>
<path d="M0 0 C2.4375 1.5 2.4375 1.5 4 3 C3.01 3.33 2.02 3.66 1 4 C0.67 3.67 0.34 3.34 0 3 C-3.06481021 2.8386942 -5.05549278 3.01849759 -8 4 C-8.33 5.98 -8.66 7.96 -9 10 C-10.32 9.34 -11.64 8.68 -13 8 C-12.68151851 5.02750614 -11.96374181 3.96160897 -9.875 1.75 C-6.25833717 -0.45144694 -4.17063411 -0.53080798 0 0 Z " fill="#E5E1D9" transform="translate(81,42)"/>
<path d="M0 0 C2.31 0.33 4.62 0.66 7 1 C1.27312296 6.87758433 1.27312296 6.87758433 -3.25 7.3125 C-7.63436813 6.94713599 -9.61562477 5.73973233 -13 3 C-13.33 2.34 -13.66 1.68 -14 1 C-12.02 1 -10.04 1 -8 1 C-8 1.99 -8 2.98 -8 4 C-5.69 4.66 -3.38 5.32 -1 6 C-0.67 4.02 -0.34 2.04 0 0 Z " fill="#EDE8E1" transform="translate(58,77)"/>
<path d="M0 0 C0.99 0.33 1.98 0.66 3 1 C2.50757812 1.51949219 2.01515625 2.03898437 1.5078125 2.57421875 C-0.51538639 5.82915789 -0.26295191 8.00259279 -0.125 11.8125 C0.04279001 19.60710862 -0.38269281 27.22854335 -1 35 C-1.33 35 -1.66 35 -2 35 C-2 27.08 -2 19.16 -2 11 C-2.66 11 -3.32 11 -4 11 C-2.25 3.375 -2.25 3.375 0 0 Z " fill="#201F1E" transform="translate(63,41)"/>
<path d="M0 0 C5.11174993 0.24341666 7.36964911 1.82885434 10.80078125 5.33203125 C12.14624562 7.20341004 12.58499049 8.74918369 13 11 C10.36 11.33 7.72 11.66 5 12 C5 10.68 5 9.36 5 8 C5.66 8 6.32 8 7 8 C6.34 6.02 5.68 4.04 5 2 C3.35 1.67 1.7 1.34 0 1 C0 0.67 0 0.34 0 0 Z " fill="#F3EEE4" transform="translate(41,90)"/>
<path d="M0 0 C2.10827055 3.16240582 2.33817465 4.50657469 2.625 8.1875 C2.69976562 9.08855469 2.77453125 9.98960938 2.8515625 10.91796875 C2.90054688 11.60503906 2.94953125 12.29210938 3 13 C2.67 13 2.34 13 2 13 C2 11.35 2 9.7 2 8 C1.34 8 0.68 8 0 8 C-0.33 9.32 -0.66 10.64 -1 12 C-0.34 12.33 0.32 12.66 1 13 C0.01 13.33 -0.98 13.66 -2 14 C-3.74271938 11.702779 -5.39911152 9.40133271 -7 7 C-6.01 6.67 -5.02 6.34 -4 6 C-4 6.66 -4 7.32 -4 8 C-0.125 6.25 -0.125 6.25 1 4 C0.34 4 -0.32 4 -1 4 C-1 4.66 -1 5.32 -1 6 C-1.66 5.67 -2.32 5.34 -3 5 C-2.625 3.0625 -2.625 3.0625 -2 1 C-1.34 0.67 -0.68 0.34 0 0 Z " fill="#030404" transform="translate(92,34)"/>
<path d="M0 0 C0.66 0.33 1.32 0.66 2 1 C1.34 2.98 0.68 4.96 0 7 C0.66 7.33 1.32 7.66 2 8 C1.67 8.99 1.34 9.98 1 11 C1.763125 11 2.52625 11 3.3125 11 C5.20833333 11 7.10416667 11 9 11 C9.33 12.65 9.66 14.3 10 16 C9.67 15.34 9.34 14.68 9 14 C8.195625 14.020625 7.39125 14.04125 6.5625 14.0625 C4 14 4 14 3 13 C2.34 13.66 1.68 14.32 1 15 C-2.44419134 5.58997722 -2.44419134 5.58997722 -2 1 C-1.34 0.67 -0.68 0.34 0 0 Z " fill="#F2EDE3" transform="translate(96,27)"/>
<path d="M0 0 C1.32 0.66 2.64 1.32 4 2 C3.34 2 2.68 2 2 2 C2.33 2.99 2.66 3.98 3 5 C3.66 5.33 4.32 5.66 5 6 C5 7.65 5 9.3 5 11 C4.67 11.165 4.67 11.165 3 12 C3 11.34 3 10.68 3 10 C2.01 9.67 1.02 9.34 0 9 C-1.75 7.125 -1.75 7.125 -3 5 C-2.67 4.01 -2.34 3.02 -2 2 C-1.34 2 -0.68 2 0 2 C0 1.34 0 0.68 0 0 Z " fill="#060707" transform="translate(66,70)"/>
<path d="M0 0 C2 2 2 2 2.23046875 4.4609375 C2.21628906 5.42257813 2.20210938 6.38421875 2.1875 7.375 C2.18105469 8.33148438 2.17460938 9.28796875 2.16796875 10.2734375 C2.02057959 12.66594068 1.67819373 14.71041797 1 17 C0.34 17 -0.32 17 -1 17 C-2.0533573 11.49913409 -2.06625257 6.52081885 -1 1 C-0.67 0.67 -0.34 0.34 0 0 Z " fill="#272625" transform="translate(96,40)"/>
<path d="M0 0 C1.32 0.99 2.64 1.98 4 3 C3.67 3.66 3.34 4.32 3 5 C1.68 5 0.36 5 -1 5 C-4.58514135 7.58130177 -7.43835552 9.7835599 -9 14 C-10.32 13.67 -11.64 13.34 -13 13 C-8.71 8.71 -4.42 4.42 0 0 Z " fill="#020202" transform="translate(85,19)"/>
<path d="M0 0 C0.66 0.33 1.32 0.66 2 1 C2 2.98 2 4.96 2 7 C1.34 7 0.68 7 0 7 C0 9.31 0 11.62 0 14 C-0.33 14 -0.66 14 -1 14 C-1.12375 12.88625 -1.2475 11.7725 -1.375 10.625 C-2 7 -2 7 -4 5 C-5.98821313 4.60235737 -7.98944339 4.26224651 -10 4 C-10 3.67 -10 3.34 -10 3 C-8.72125 2.87625 -7.4425 2.7525 -6.125 2.625 C-2.25 2.25 -2.25 2.25 0 0 Z " fill="#ECE3D5" transform="translate(62,7)"/>
<path d="M0 0 C4.97341918 3.64717407 6.42672826 5.93166615 8 12 C7.01 12.33 6.02 12.66 5 13 C4.34 11.02 3.68 9.04 3 7 C2.34 7 1.68 7 1 7 C1 6.34 1 5.68 1 5 C0.01 4.67 -0.98 4.34 -2 4 C-2 3.01 -2 2.02 -2 1 C-1.34 0.67 -0.68 0.34 0 0 Z " fill="#151515" transform="translate(89,28)"/>
<path d="M0 0 C0.99 0.33 1.98 0.66 3 1 C3.66666667 3 4.33333333 5 5 7 C5.99 7.33 6.98 7.66 8 8 C8.6875 10.0625 8.6875 10.0625 9 12 C7.68 12 6.36 12 5 12 C4.67 12.66 4.34 13.32 4 14 C3.855625 13.236875 3.71125 12.47375 3.5625 11.6875 C2.62559525 7.2111773 1.76444884 5.5501105 -2 3 C-1.34 3 -0.68 3 0 3 C0 2.01 0 1.02 0 0 Z " fill="#020202" transform="translate(32,68)"/>
<path d="M0 0 C0.33 0 0.66 0 1 0 C1.33 3.3 1.66 6.6 2 10 C3.98 10 5.96 10 8 10 C8.33 10.66 8.66 11.32 9 12 C8.67 12.66 8.34 13.32 8 14 C6.35 13.67 4.7 13.34 3 13 C2.34 14.32 1.68 15.64 1 17 C-0.13480527 13.39006828 -0.10015767 10.0157673 -0.0625 6.25 C-0.05347656 5.07953125 -0.04445313 3.9090625 -0.03515625 2.703125 C-0.02355469 1.81109375 -0.01195312 0.9190625 0 0 Z " fill="#252524" transform="translate(13,43)"/>
<path d="M0 0 C0.99 0.33 1.98 0.66 3 1 C2.41196203 4.02419525 1.77321882 7.01758453 1 10 C-0.8125 10.6875 -0.8125 10.6875 -3 11 C-4.75 9.5625 -4.75 9.5625 -6 8 C-1.25 5 -1.25 5 1 5 C0.835 4.175 0.835 4.175 0 0 Z " fill="#171716" transform="translate(87,45)"/>
<path d="M0 0 C3.3 0.33 6.6 0.66 10 1 C10 1.66 10 2.32 10 3 C9.67 3.165 9.67 3.165 8 4 C7.375 6.5625 7.375 6.5625 7 9 C4.61117179 6.03455808 2.28563851 3.04751801 0 0 Z " fill="#F1ECE2" transform="translate(42,37)"/>
<path d="M0 0 C1.65 0.33 3.3 0.66 5 1 C4.34 1.99 4.34 1.99 1 7 C-0.32 6.34 -1.64 5.68 -3 5 C-3 4.34 -3 3.68 -3 3 C-3.66 3 -4.32 3 -5 3 C-5 2.34 -5 1.68 -5 1 C-3.68 1.33 -2.36 1.66 -1 2 C-0.67 1.34 -0.34 0.68 0 0 Z " fill="#161515" transform="translate(55,90)"/>
<path d="M0 0 C0.33 0.99 0.66 1.98 1 3 C1.66 3 2.32 3 3 3 C3.33 2.01 3.66 1.02 4 0 C4.66 0 5.32 0 6 0 C5.67 2.64 5.34 5.28 5 8 C4.01 7.67 3.02 7.34 2 7 C1.67 7.66 1.34 8.32 1 9 C0 8 0 8 -0.09765625 6.15234375 C-0.06510417 4.1015625 -0.03255208 2.05078125 0 0 Z " fill="#040505" transform="translate(14,41)"/>
<path d="M0 0 C1.485 0.33 1.485 0.33 9 2 C8.01 2.66 7.02 3.32 6 4 C5.3125 6.125 5.3125 6.125 5 8 C4.34 7.67 3.68 7.34 3 7 C2.375 4.4375 2.375 4.4375 2 2 C1.34 2.33 1.34 2.33 -2 4 C-1.34 2.68 -0.68 1.36 0 0 Z " fill="#1C1C1C" transform="translate(32,60)"/>
<path d="M0 0 C0.66 0 1.32 0 2 0 C2.33 2.31 2.66 4.62 3 7 C2.175 7.433125 1.35 7.86625 0.5 8.3125 C0.0875 8.5909375 0.0875 8.5909375 -2 10 C-2 10.99 -2 11.98 -2 13 C-2.66 13 -3.32 13 -4 13 C-4.33 12.01 -4.66 11.02 -5 10 C-3.70672372 7.97386717 -2.3703055 5.97485205 -1 4 C-0.25 1.625 -0.25 1.625 0 0 Z " fill="#080808" transform="translate(92,42)"/>
<path d="M0 0 C1.52299523 2.93720508 2.80100302 5.9168649 4 9 C3.34 9.66 2.68 10.32 2 11 C0 7.66666667 -2 4.33333333 -4 1 C-2.68 0.67 -1.36 0.34 0 0 Z " fill="#232322" transform="translate(39,39)"/>
<path d="M0 0 C0 1.65 0 3.3 0 5 C-0.66 5 -1.32 5 -2 5 C-1.67 5.99 -1.34 6.98 -1 8 C-1.33 8.66 -1.66 9.32 -2 10 C-3.65 10 -5.3 10 -7 10 C-6.34 9.01 -5.68 8.02 -5 7 C-4.34 7 -3.68 7 -3 7 C-3.99 6.01 -4.98 5.02 -6 4 C-5.67 3.01 -5.34 2.02 -5 1 C-3.28960011 0.41205004 -1.81522119 0 0 0 Z " fill="#030403" transform="translate(83,31)"/>
<path d="M0 0 C0.66 0.33 1.32 0.66 2 1 C2 2.32 2 3.64 2 5 C2.66 5 3.32 5 4 5 C4 4.34 4 3.68 4 3 C5.65 3 7.3 3 9 3 C6.37243948 5.5224581 5.0859611 5.99258956 1.375 6.3125 C-2 6 -2 6 -4 4 C-3.01 4 -2.02 4 -1 4 C-0.67 2.68 -0.34 1.36 0 0 Z " fill="#D2CEC6" transform="translate(76,48)"/>
<path d="M0 0 C0.66 0.99 1.32 1.98 2 3 C1.01 4.32 0.02 5.64 -1 7 C-5.75 6.125 -5.75 6.125 -8 5 C-8 3.68 -8 2.36 -8 1 C-7.01 1.33 -6.02 1.66 -5 2 C-5 2.66 -5 3.32 -5 4 C-3.35 3.67 -1.7 3.34 0 3 C0 2.01 0 1.02 0 0 Z " fill="#EEE8DF" transform="translate(16,23)"/>
<path d="M0 0 C0.66 0.33 1.32 0.66 2 1 C1.47731534 3.76276177 0.89130413 6.3260876 0 9 C-0.99 9 -1.98 9 -3 9 C-3 8.01 -3 7.02 -3 6 C-3.66 6 -4.32 6 -5 6 C-5 5.34 -5 4.68 -5 4 C-4.01 4 -3.02 4 -2 4 C-1.34 2.68 -0.68 1.36 0 0 Z " fill="#0C0D0C" transform="translate(43,70)"/>
<path d="M0 0 C2.7648665 -0.22417836 4.46277487 -0.32233508 6.875 1.125 C8.55290631 3.92151052 7.74875648 5.93690532 7 9 C6.67 8.01 6.34 7.02 6 6 C5.01 6 4.02 6 3 6 C2.938125 5.690625 2.938125 5.690625 2.625 4.125 C2 2 2 2 0 0 Z " fill="#A67626" transform="translate(53,11)"/>
<path d="M0 0 C6.34375 -0.48798077 6.34375 -0.48798077 9.4375 1.8125 C11 4 11 4 11 7 C10.01 7 9.02 7 8 7 C8 6.34 8 5.68 8 5 C6.68 4.67 5.36 4.34 4 4 C4.33 3.34 4.66 2.68 5 2 C3.35 1.67 1.7 1.34 0 1 C0 0.67 0 0.34 0 0 Z " fill="#191818" transform="translate(59,77)"/>
<path d="M0 0 C0.33 0 0.66 0 1 0 C1.33 6.27 1.66 12.54 2 19 C1.01 18.67 0.02 18.34 -1 18 C-0.835 15.03 -0.835 15.03 0 0 Z " fill="#B2AEA8" transform="translate(11,42)"/>
<path d="M0 0 C1.98 0 3.96 0 6 0 C6 0.99 6 1.98 6 3 C8.64 3.66 11.28 4.32 14 5 C14 5.33 14 5.66 14 6 C8.29964499 6.4560284 5.45215753 5.60412752 1 2 C0.67 1.34 0.34 0.68 0 0 Z " fill="#D9D5CE" transform="translate(44,78)"/>
<path d="M0 0 C1.65 0 3.3 0 5 0 C5 0.66 5 1.32 5 2 C5.66 2.33 6.32 2.66 7 3 C7 4.32 7 5.64 7 7 C6.34 7 5.68 7 5 7 C5 6.34 5 5.68 5 5 C3.68 5 2.36 5 1 5 C0.835 4.175 0.835 4.175 0 0 Z " fill="#131212" transform="translate(24,59)"/>
<path d="M0 0 C0.825 0.165 0.825 0.165 5 1 C5.33 1.99 5.66 2.98 6 4 C6.66 4 7.32 4 8 4 C7.67 5.65 7.34 7.3 7 9 C4.61327331 6.03716687 2.2646629 3.05729491 0 0 Z " fill="#DFDBD3" transform="translate(85,18)"/>
<path d="M0 0 C4 4.625 4 4.625 4 8 C5.155 7.835 5.155 7.835 11 7 C10.67 7.66 10.34 8.32 10 9 C3.6217765 9.36103152 3.6217765 9.36103152 1.0625 7.875 C-0.44484863 5.214973 -0.19986253 2.99793795 0 0 Z " fill="#613716" transform="translate(48,15)"/>
<path d="M0 0 C2.28459758 2.28459758 2.97129748 4.12537344 4.125 7.125 C4.47820313 8.03507812 4.83140625 8.94515625 5.1953125 9.8828125 C5.46085937 10.58148438 5.72640625 11.28015625 6 12 C5.67 12.165 5.67 12.165 4 13 C1.04952165 8.38987758 -0.5497272 5.63470383 0 0 Z " fill="#1B1A1A" transform="translate(15,61)"/>
<path d="M0 0 C1.98 0.33 1.98 0.33 12 2 C11.01 2.66 10.02 3.32 9 4 C9.66 4.66 10.32 5.32 11 6 C10.34 6 9.68 6 9 6 C9 6.66 9 7.32 9 8 C8.01 7.67 7.02 7.34 6 7 C6.33 5.68 6.66 4.36 7 3 C6.030625 2.87625 5.06125 2.7525 4.0625 2.625 C3.051875 2.41875 2.04125 2.2125 1 2 C0.67 1.34 0.34 0.68 0 0 Z " fill="#030303" transform="translate(70,52)"/>
<path d="M0 0 C0.33 0.66 0.66 1.32 1 2 C1.99 2.33 2.98 2.66 4 3 C5.38576923 4.62332967 6.72641268 6.28724465 8 8 C7.01 8.33 6.02 8.66 5 9 C2.5 6.75 2.5 6.75 0 4 C0 2.68 0 1.36 0 0 Z " fill="#242423" transform="translate(22,74)"/>
<path d="M0 0 C3 1 3 1 4.6875 4.0625 C5.120625 5.031875 5.55375 6.00125 6 7 C5.34 7.66 4.68 8.32 4 9 C3.34 7.35 2.68 5.7 2 4 C1.01 4 0.02 4 -1 4 C-0.67 2.68 -0.34 1.36 0 0 Z " fill="#1E1D1D" transform="translate(88,24)"/>
<path d="M0 0 C1.65 0.99 3.3 1.98 5 3 C4.7009375 3.0515625 4.7009375 3.0515625 3.1875 3.3125 C0.70138466 4.09385053 -0.22943442 5.14895416 -2 7 C-2.66 7 -3.32 7 -4 7 C-3.43628586 3.73045798 -2.50037734 2.17424117 0 0 Z " fill="#0B0B0B" transform="translate(41,64)"/>
<path d="M0 0 C0.33 0.66 0.66 1.32 1 2 C2.32 2 3.64 2 5 2 C5.33 2.99 5.66 3.98 6 5 C4.35 5 2.7 5 1 5 C1 5.66 1 6.32 1 7 C0.34 7 -0.32 7 -1 7 C-0.67 4.69 -0.34 2.38 0 0 Z " fill="#F5F0E6" transform="translate(79,46)"/>
<path d="M0 0 C1.65 1.32 3.3 2.64 5 4 C3.68 4 2.36 4 1 4 C0.67 4.99 0.34 5.98 0 7 C-1.32 6.34 -2.64 5.68 -4 5 C-2.68 3.35 -1.36 1.7 0 0 Z " fill="#030303" transform="translate(43,81)"/>
<path d="M0 0 C3.375 -0.1875 3.375 -0.1875 7 0 C9 3 9 3 9 7 C8.01 7 7.02 7 6 7 C6 5.35 6 3.7 6 2 C4.35 2 2.7 2 1 2 C0.67 1.34 0.34 0.68 0 0 Z " fill="#161616" transform="translate(38,69)"/>
<path d="M0 0 C0.66 0.33 1.32 0.66 2 1 C1.34 2.98 0.68 4.96 0 7 C0.66 7.33 1.32 7.66 2 8 C1.34 9.32 0.68 10.64 0 12 C-1.42258812 8.17679443 -2.24042276 5.08718695 -2 1 C-1.34 0.67 -0.68 0.34 0 0 Z " fill="#D5D1C9" transform="translate(96,27)"/>
<path d="M0 0 C0.825 0.33 0.825 0.33 5 2 C5 2.99 5 3.98 5 5 C3.02 5 1.04 5 -1 5 C-0.67 3.35 -0.34 1.7 0 0 Z " fill="#F0EAE0" transform="translate(40,103)"/>
<path d="M0 0 C3.87132028 0.57352893 6.08172796 2.48704352 9 5 C7.02 5.33 5.04 5.66 3 6 C2.87625 5.195625 2.7525 4.39125 2.625 3.5625 C2.521875 3.1396875 2.521875 3.1396875 2 1 C1.34 0.67 0.68 0.34 0 0 Z " fill="#ECE8DF" transform="translate(26,83)"/>
<path d="M0 0 C0.66 0 1.32 0 2 0 C3 1 3 1 4 4 C4.99 4.33 5.98 4.66 7 5 C5.02 5.33 3.04 5.66 1 6 C-0.0625 4.125 -0.0625 4.125 -1 2 C-0.67 1.34 -0.34 0.68 0 0 Z " fill="#222120" transform="translate(38,84)"/>
<path d="M0 0 C0.99 0.66 1.98 1.32 3 2 C2.375 3.9375 2.375 3.9375 1 6 C-2.125 6.75 -2.125 6.75 -5 7 C-3.88820837 3.66462511 -2.52588702 2.36292656 0 0 Z " fill="#232221" transform="translate(81,77)"/>
<path d="M0 0 C0.66 0 1.32 0 2 0 C3.125 4.75 3.125 4.75 2 7 C1.34 7 0.68 7 0 7 C-0.33 6.34 -0.66 5.68 -1 5 C-1.66 5 -2.32 5 -3 5 C-3 4.34 -3 3.68 -3 3 C-2.34 3 -1.68 3 -1 3 C-0.67 2.01 -0.34 1.02 0 0 Z " fill="#080808" transform="translate(75,73)"/>
<path d="M0 0 C0 0.99 0 1.98 0 3 C-0.99 2.835 -0.99 2.835 -6 2 C-6.33 2.99 -6.66 3.98 -7 5 C-7.33 3.68 -7.66 2.36 -8 1 C-4.93251126 -0.86240388 -3.40254489 -1.2151946 0 0 Z " fill="#020202" transform="translate(45,63)"/>
<path d="M0 0 C0.66 0 1.32 0 2 0 C1.34 3.3 0.68 6.6 0 10 C-0.66 9.34 -1.32 8.68 -2 8 C-1.69347955 5.0574037 -1.32728846 2.65457692 0 0 Z " fill="#D3CFC8" transform="translate(13,30)"/>
<path d="M0 0 C0.33 0 0.66 0 1 0 C1.1953125 2.05078125 1.390625 4.1015625 1.5859375 6.15234375 C1.72257812 6.76207031 1.85921875 7.37179688 2 8 C2.66 8.33 3.32 8.66 4 9 C3.01 9.33 2.02 9.66 1 10 C0.01 9.34 -0.98 8.68 -2 8 C-1.33333333 5.33333333 -0.66666667 2.66666667 0 0 Z " fill="#E2D8CA" transform="translate(47,15)"/>
<path d="M0 0 C0 0.99 0 1.98 0 3 C-3.75 5 -3.75 5 -6 5 C-6 3.68 -6 2.36 -6 1 C-4.02 0.67 -2.04 0.34 0 0 Z " fill="#141414" transform="translate(83,28)"/>
<path d="M0 0 C4.03174806 0.27489191 5.56894631 0.53491576 8.375 3.5625 C8.91125 4.366875 9.4475 5.17125 10 6 C9.01 6 8.02 6 7 6 C6.773125 5.360625 6.54625 4.72125 6.3125 4.0625 C5 2 5 2 2.375 1.25 C1.59125 1.1675 0.8075 1.085 0 1 C0 0.67 0 0.34 0 0 Z " fill="#C2BFB8" transform="translate(41,90)"/>
<path d="M0 0 C0.33 0.99 0.66 1.98 1 3 C1.66 3.66 2.32 4.32 3 5 C0.69 4.67 -1.62 4.34 -4 4 C-4.33 3.01 -4.66 2.02 -5 1 C-2 0 -2 0 0 0 Z " fill="#020303" transform="translate(36,56)"/>
<path d="M0 0 C0.825 0.165 0.825 0.165 5 1 C5.33 1.99 5.66 2.98 6 4 C6.33 4.66 6.66 5.32 7 6 C4.625 5.8125 4.625 5.8125 2 5 C0.6875 2.4375 0.6875 2.4375 0 0 Z " fill="#201F1F" transform="translate(78,55)"/>
<path d="M0 0 C1.32 0.66 2.64 1.32 4 2 C3.34 3.32 2.68 4.64 2 6 C0.68 5.67 -0.64 5.34 -2 5 C-1.34 3.35 -0.68 1.7 0 0 Z " fill="#F6F0E7" transform="translate(73,46)"/>
<path d="M0 0 C3 1 3 1 4.6875 4.0625 C5.120625 5.031875 5.55375 6.00125 6 7 C4.125 6.6875 4.125 6.6875 2 6 C0 3 0 3 0 0 Z " fill="#080808" transform="translate(40,40)"/>
<path d="M0 0 C1.32 0.99 2.64 1.98 4 3 C3.67 3.66 3.34 4.32 3 5 C1 5 -1 5 -3 5 C-1.125 1.125 -1.125 1.125 0 0 Z " fill="#0B0B0A" transform="translate(85,19)"/>
<path d="M0 0 C1.32 1.32 2.64 2.64 4 4 C3.34 4.66 2.68 5.32 2 6 C1.01 5.67 0.02 5.34 -1 5 C-0.67 3.35 -0.34 1.7 0 0 Z " fill="#E0DCD4" transform="translate(19,74)"/>
<path d="M0 0 C1.98 0.66 3.96 1.32 6 2 C5.67 3.32 5.34 4.64 5 6 C4.67 5.34 4.34 4.68 4 4 C0.9375 3.375 0.9375 3.375 -2 3 C-1.34 2.67 -0.68 2.34 0 2 C0 1.34 0 0.68 0 0 Z " fill="#040404" transform="translate(69,54)"/>
<path d="M0 0 C0.825 0.33 0.825 0.33 5 2 C3.625 4 3.625 4 2 6 C1.34 6 0.68 6 0 6 C0 4.02 0 2.04 0 0 Z " fill="#161616" transform="translate(15,38)"/>
<path d="M0 0 C1.65 0 3.3 0 5 0 C4.67 0.66 4.34 1.32 4 2 C3.34 1.67 2.68 1.34 2 1 C2 1.66 2 2.32 2 3 C2.99 3 3.98 3 5 3 C5 3.66 5 4.32 5 5 C4.01 5.33 3.02 5.66 2 6 C0 3 0 3 0 0 Z " fill="#8A622C" transform="translate(50,15)"/>
<path d="M0 0 C0.66 0.33 1.32 0.66 2 1 C1.67 1.66 1.34 2.32 1 3 C0.34 3 -0.32 3 -1 3 C-1 3.66 -1 4.32 -1 5 C-2.65 4.67 -4.3 4.34 -6 4 C-4.03617993 2.49440461 -2.21736634 1.10868317 0 0 Z " fill="#C5C1BA" transform="translate(75,86)"/>
<path d="M0 0 C1.32 1.32 2.64 2.64 4 4 C2.35 4.66 0.7 5.32 -1 6 C-1.042721 4.33388095 -1.04063832 2.66617115 -1 1 C-0.67 0.67 -0.34 0.34 0 0 Z " fill="#F4EFE5" transform="translate(94,68)"/>
<path d="M0 0 C0.33 0.66 0.66 1.32 1 2 C-0.65 3.65 -2.3 5.3 -4 7 C-4.66 5.68 -5.32 4.36 -6 3 C-4.68 3 -3.36 3 -2 3 C-2 2.34 -2 1.68 -2 1 C-1.34 0.67 -0.68 0.34 0 0 Z " fill="#050505" transform="translate(91,64)"/>
<path d="M0 0 C1.32 0 2.64 0 4 0 C4 0.66 4 1.32 4 2 C3.01 2.33 2.02 2.66 1 3 C1 3.66 1 4.32 1 5 C0.01 5 -0.98 5 -2 5 C-1.125 1.125 -1.125 1.125 0 0 Z " fill="#1B1B1A" transform="translate(85,65)"/>
<path d="M0 0 C0.33 0.66 0.66 1.32 1 2 C0.01 2 -0.98 2 -2 2 C-1.67 3.32 -1.34 4.64 -1 6 C-1.99 6.33 -2.98 6.66 -4 7 C-4 5.02 -4 3.04 -4 1 C-2.68 0.67 -1.36 0.34 0 0 Z " fill="#030403" transform="translate(66,51)"/>
<path d="M0 0 C2.46800047 1.15173355 4.04783565 2.04783565 6 4 C5.67 4.99 5.34 5.98 5 7 C3.29115995 5.37660195 1.62553283 3.70680947 0 2 C0 1.34 0 0.68 0 0 Z " fill="#ECE7DF" transform="translate(35,43)"/>
<path d="M0 0 C0.99 0.33 1.98 0.66 3 1 C2.34 2.32 1.68 3.64 1 5 C-0.32 5 -1.64 5 -3 5 C-3 4.34 -3 3.68 -3 3 C-2.34 3 -1.68 3 -1 3 C-0.67 2.01 -0.34 1.02 0 0 Z " fill="#111111" transform="translate(77,66)"/>
<path d="M0 0 C2.18975773 3.28463659 2.99806563 6.20696275 4 10 C3.01 9.67 2.02 9.34 1 9 C0.67 6.03 0.34 3.06 0 0 Z " fill="#C4BFB9" transform="translate(13,61)"/>
<path d="M0 0 C0.495 0.33 0.495 0.33 3 2 C3 2.99 3 3.98 3 5 C2.01 5.33 1.02 5.66 0 6 C-1.125 2.25 -1.125 2.25 0 0 Z " fill="#D0CCC4" transform="translate(85,45)"/>
<path d="M0 0 C0 0.99 0 1.98 0 3 C0.66 3.66 1.32 4.32 2 5 C1.01 5.66 0.02 6.32 -1 7 C-1.66 6.67 -2.32 6.34 -3 6 C-1.125 1.125 -1.125 1.125 0 0 Z " fill="#060707" transform="translate(74,33)"/>
<path d="M0 0 C0.99 0.33 1.98 0.66 3 1 C2.01 3.31 1.02 5.62 0 8 C-1.125 6.25 -1.125 6.25 -2 4 C-1.125 1.75 -1.125 1.75 0 0 Z " fill="#272725" transform="translate(17,26)"/>
<path d="M0 0 C0.103125 0.639375 0.20625 1.27875 0.3125 1.9375 C0.539375 2.618125 0.76625 3.29875 1 4 C1.99 4.33 2.98 4.66 4 5 C4 5.66 4 6.32 4 7 C-0.875 5.25 -0.875 5.25 -2 3 C-1.34 3 -0.68 3 0 3 C0 2.01 0 1.02 0 0 Z " fill="#030303" transform="translate(31,77)"/>
<path d="M0 0 C0.33 0.99 0.66 1.98 1 3 C-0.32 4.32 -1.64 5.64 -3 7 C-3.66 6.34 -4.32 5.68 -5 5 C-4.34 5 -3.68 5 -3 5 C-2.67 4.01 -2.34 3.02 -2 2 C-1.34 2 -0.68 2 0 2 C0 1.34 0 0.68 0 0 Z " fill="#20201F" transform="translate(91,66)"/>
<path d="M0 0 C-3.08809695 1.76462683 -4.23312136 2 -8 2 C-8 1.34 -8 0.68 -8 0 C-5.13822943 -1.43088528 -3.06624227 -0.59991697 0 0 Z " fill="#111111" transform="translate(75,63)"/>
<path d="M0 0 C0 0.66 0 1.32 0 2 C-1.8125 2.6875 -1.8125 2.6875 -4 3 C-5.75 1.5625 -5.75 1.5625 -7 0 C-2.25 -1.125 -2.25 -1.125 0 0 Z " fill="#222221" transform="translate(88,53)"/>
<path d="M0 0 C0.33 0.66 0.66 1.32 1 2 C1.66 2 2.32 2 3 2 C2.67 2.99 2.34 3.98 2 5 C1.01 5.33 0.02 5.66 -1 6 C-1.625 4.125 -1.625 4.125 -2 2 C-1.34 1.34 -0.68 0.68 0 0 Z " fill="#020303" transform="translate(66,38)"/>
<path d="M0 0 C0.33 1.32 0.66 2.64 1 4 C0.01 4.33 -0.98 4.66 -2 5 C-2 4.34 -2 3.68 -2 3 C-2.66 2.67 -3.32 2.34 -4 2 C-2.68 1.34 -1.36 0.68 0 0 Z " fill="#0E0E0F" transform="translate(30,33)"/>
<path d="M0 0 C0.99 0.33 1.98 0.66 3 1 C2.67 2.32 2.34 3.64 2 5 C1.01 4.01 0.02 3.02 -1 2 C-0.67 1.34 -0.34 0.68 0 0 Z M-3 2 C-1 3 -1 3 -1 3 Z " fill="#ECE7DE" transform="translate(67,31)"/>
<path d="M0 0 C0 0.66 0 1.32 0 2 C0.66 2.33 1.32 2.66 2 3 C-2.75 4.125 -2.75 4.125 -5 3 C-5 2.34 -5 1.68 -5 1 C-3 0 -3 0 0 0 Z " fill="#040504" transform="translate(87,26)"/>
<path d="M0 0 C2.31 0 4.62 0 7 0 C6.67 1.65 6.34 3.3 6 5 C5.34 4.34 4.68 3.68 4 3 C4.33 2.67 4.66 2.34 5 2 C3.35 1.67 1.7 1.34 0 1 C0 0.67 0 0.34 0 0 Z " fill="#484746" transform="translate(59,77)"/>
<path d="M0 0 C0.66 0 1.32 0 2 0 C2.33 1.98 2.66 3.96 3 6 C2.34 6 1.68 6 1 6 C1 5.01 1 4.02 1 3 C0.34 2.67 -0.32 2.34 -1 2 C-0.67 1.34 -0.34 0.68 0 0 Z " fill="#171716" transform="translate(23,66)"/>
<path d="M0 0 C0.66 0.99 1.32 1.98 2 3 C1.34 4.32 0.68 5.64 0 7 C-0.66 7 -1.32 7 -2 7 C-1.34 4.69 -0.68 2.38 0 0 Z " fill="#D1CDC6" transform="translate(95,62)"/>
<path d="M0 0 C0.825 0.165 0.825 0.165 5 1 C5 1.66 5 2.32 5 3 C3.35 3.33 1.7 3.66 0 4 C0 2.68 0 1.36 0 0 Z " fill="#0D0D0D" transform="translate(84,62)"/>
<path d="M0 0 C0.33 0.66 0.66 1.32 1 2 C-0.125 3.5625 -0.125 3.5625 -2 5 C-5.1875 4.6875 -5.1875 4.6875 -8 4 C-8 3.67 -8 3.34 -8 3 C-6.865625 2.690625 -5.73125 2.38125 -4.5625 2.0625 C-1 1 -1 1 0 0 Z " fill="#C6BBAA" transform="translate(60,21)"/>
<path d="M0 0 C-1.75 4.875 -1.75 4.875 -4 6 C-4 4.35 -4 2.7 -4 1 C-2 0 -2 0 0 0 Z " fill="#DCD8D0" transform="translate(22,19)"/>
<path d="M0 0 C0.66 0.33 1.32 0.66 2 1 C1.67 2.98 1.34 4.96 1 7 C0.67 6.01 0.34 5.02 0 4 C-0.66 4 -1.32 4 -2 4 C-1 1 -1 1 0 0 Z " fill="#9A6F2F" transform="translate(59,13)"/>
<path d="M0 0 C0.66 0.33 1.32 0.66 2 1 C2 1.66 2 2.32 2 3 C1.34 3 0.68 3 0 3 C0 5.31 0 7.62 0 10 C-0.33 10 -0.66 10 -1 10 C-1.02689216 8.52093108 -1.04634621 7.04172517 -1.0625 5.5625 C-1.07410156 4.73878906 -1.08570313 3.91507813 -1.09765625 3.06640625 C-1 1 -1 1 0 0 Z " fill="#E3D9CB" transform="translate(62,11)"/>
<path d="M0 0 C0.33 0.66 0.66 1.32 1 2 C-0.65 2.66 -2.3 3.32 -4 4 C-4.66 3.01 -5.32 2.02 -6 1 C-4.02 0.67 -2.04 0.34 0 0 Z " fill="#0F0F0F" transform="translate(22,58)"/>
<path d="M0 0 C-0.33 0.99 -0.66 1.98 -1 3 C-2.65 3 -4.3 3 -6 3 C-6 2.34 -6 1.68 -6 1 C-4 0 -4 0 0 0 Z " fill="#141414" transform="translate(92,58)"/>
<path d="M0 0 C0.825 0.165 0.825 0.165 5 1 C4.67 1.99 4.34 2.98 4 4 C2.68 4 1.36 4 0 4 C0 2.68 0 1.36 0 0 Z " fill="#020303" transform="translate(14,50)"/>
<path d="M0 0 C0.66 0 1.32 0 2 0 C2.33 1.98 2.66 3.96 3 6 C2.34 6 1.68 6 1 6 C1 5.34 1 4.68 1 4 C0.34 4 -0.32 4 -1 4 C-0.67 2.68 -0.34 1.36 0 0 Z " fill="#151515" transform="translate(92,42)"/>
<path d="M0 0 C0.99 0.99 1.98 1.98 3 3 C2.34 3 1.68 3 1 3 C0.67 3.66 0.34 4.32 0 5 C-0.66 4.67 -1.32 4.34 -2 4 C-2 3.34 -2 2.68 -2 2 C-1.34 2 -0.68 2 0 2 C0 1.34 0 0.68 0 0 Z " fill="#030303" transform="translate(33,61)"/>
<path d="M0 0 C1.9375 0.3125 1.9375 0.3125 4 1 C4.33 1.99 4.66 2.98 5 4 C4.01 4.33 3.02 4.66 2 5 C1.34 3.35 0.68 1.7 0 0 Z " fill="#222220" transform="translate(43,41)"/>
<path d="M0 0 C0.825 0.165 0.825 0.165 5 1 C5 1.66 5 2.32 5 3 C4.01 2.67 3.02 2.34 2 2 C1.34 2.66 0.68 3.32 0 4 C0 2.68 0 1.36 0 0 Z " fill="#E8E3DA" transform="translate(97,38)"/>
<path d="M0 0 C1.65 0 3.3 0 5 0 C4.67 1.32 4.34 2.64 4 4 C2.68 2.68 1.36 1.36 0 0 Z " fill="#DBD8D0" transform="translate(42,37)"/>
<path d="M0 0 C0.66 0.33 1.32 0.66 2 1 C2 1.99 2 2.98 2 4 C1.01 4.33 0.02 4.66 -1 5 C-1.33 4.01 -1.66 3.02 -2 2 C-1.34 2 -0.68 2 0 2 C0 1.34 0 0.68 0 0 Z " fill="#161616" transform="translate(86,22)"/>
<path d="M0 0 C0.66 0.33 1.32 0.66 2 1 C1.67 2.65 1.34 4.3 1 6 C0.34 6 -0.32 6 -1 6 C-1.625 4.125 -1.625 4.125 -2 2 C-1.34 1.34 -0.68 0.68 0 0 Z " fill="#A07229" transform="translate(50,12)"/>
<path d="M0 0 C0.825 0.33 0.825 0.33 5 2 C4.67 2.66 4.34 3.32 4 4 C3.34 4 2.68 4 2 4 C2 3.34 2 2.68 2 2 C1.34 2 0.68 2 0 2 C0 1.34 0 0.68 0 0 Z " fill="#10100F" transform="translate(30,72)"/>
<path d="M0 0 C0.99 0 1.98 0 3 0 C2.67 1.65 2.34 3.3 2 5 C1.34 4.67 0.68 4.34 0 4 C0 2.68 0 1.36 0 0 Z " fill="#080808" transform="translate(20,71)"/>
<path d="M0 0 C0.66 0 1.32 0 2 0 C2.66 1.65 3.32 3.3 4 5 C2.68 4.34 1.36 3.68 0 3 C0 2.01 0 1.02 0 0 Z " fill="#D4D1CB" transform="translate(68,47)"/>
<path d="M0 0 C0.66 0 1.32 0 2 0 C2.66 1.65 3.32 3.3 4 5 C2.68 4.34 1.36 3.68 0 3 C0 2.01 0 1.02 0 0 Z " fill="#D3D0C9" transform="translate(22,47)"/>
<path d="M0 0 C0.66 0.165 0.66 0.165 4 1 C4 1.66 4 2.32 4 3 C2.35 3 0.7 3 -1 3 C-0.67 2.01 -0.34 1.02 0 0 Z " fill="#070808" transform="translate(78,32)"/>
<path d="M0 0 C0.66 1.32 1.32 2.64 2 4 C1.34 4.33 1.34 4.33 -2 6 C-1.34 4.02 -0.68 2.04 0 0 Z " fill="#030404" transform="translate(18,30)"/>
<path d="M0 0 C0.99 0.33 1.98 0.66 3 1 C2.67 1.495 2.67 1.495 1 4 C0.01 3.67 -0.98 3.34 -2 3 C-1.34 2.01 -0.68 1.02 0 0 Z " fill="#171716" transform="translate(20,22)"/>
<path d="M0 0 C0.99 0 1.98 0 3 0 C2.67 1.65 2.34 3.3 2 5 C1.34 4.34 0.68 3.68 0 3 C0 2.01 0 1.02 0 0 Z " fill="#E1DDD5" transform="translate(90,22)"/>
<path d="M0 0 C0.66 0.33 0.66 0.33 4 2 C3.67 2.66 3.34 3.32 3 4 C2.01 3.67 1.02 3.34 0 3 C0 2.01 0 1.02 0 0 Z " fill="#E0DBD0" transform="translate(40,103)"/>
<path d="M0 0 C2.86724686 0.57344937 3.8614515 0.8614515 6 3 C5.01 3.33 4.02 3.66 3 4 C2.67 3.01 2.34 2.02 2 1 C1.34 0.67 0.68 0.34 0 0 Z " fill="#DCD8D0" transform="translate(26,83)"/>
<path d="M0 0 C0.825 0.165 0.825 0.165 5 1 C4.67 1.66 4.34 2.32 4 3 C2.68 2.67 1.36 2.34 0 2 C0 1.34 0 0.68 0 0 Z " fill="#171616" transform="translate(37,80)"/>
<path d="M0 0 C0.66 0 1.32 0 2 0 C2.33 1.32 2.66 2.64 3 4 C2.01 4 1.02 4 0 4 C0 2.68 0 1.36 0 0 Z " fill="#1F1F1F" transform="translate(81,62)"/>
<path d="M0 0 C1.32 0.33 2.64 0.66 4 1 C3.67 1.99 3.34 2.98 3 4 C2.34 3.67 1.68 3.34 1 3 C0.67 2.01 0.34 1.02 0 0 Z " fill="#141414" transform="translate(43,53)"/>
<path d="M0 0 C0.99 0.33 1.98 0.66 3 1 C1.68 1.99 0.36 2.98 -1 4 C-1.33 3.01 -1.66 2.02 -2 1 C-1.34 0.67 -0.68 0.34 0 0 Z " fill="#141313" transform="translate(68,42)"/>
<path d="M0 0 C0.99 0.33 1.98 0.66 3 1 C2.34 1.33 2.34 1.33 -1 3 C-1.33 2.34 -1.66 1.68 -2 1 C-1.34 0.67 -0.68 0.34 0 0 Z " fill="#292827" transform="translate(60,82)"/>
<path d="M0 0 C0.66 0.33 0.66 0.33 4 2 C3.34 2.66 2.68 3.32 2 4 C1.34 2.68 0.68 1.36 0 0 Z " fill="#EAE6DD" transform="translate(22,79)"/>
<path d="M0 0 C0 0.66 0 1.32 0 2 C-1.875 2.625 -1.875 2.625 -4 3 C-4.66 2.34 -5.32 1.68 -6 1 C-4 0 -4 0 0 0 Z " fill="#020202" transform="translate(68,67)"/>
<path d="M0 0 C0.66 0.33 0.66 0.33 4 2 C3.67 2.495 3.67 2.495 2 5 C1.34 3.35 0.68 1.7 0 0 Z " fill="#2E2E2C" transform="translate(90,28)"/>
<path d="M0 0 C0.66 0.33 0.66 0.33 4 2 C3.34 2.66 2.68 3.32 2 4 C1.34 2.68 0.68 1.36 0 0 Z " fill="#DCD9D1" transform="translate(35,29)"/>
<path d="M0 0 C0.99 0.33 1.98 0.66 3 1 C2.67 1.66 2.34 2.32 2 3 C1.01 2.67 0.02 2.34 -1 2 C-0.67 1.34 -0.34 0.68 0 0 Z " fill="#E8E4DB" transform="translate(50,96)"/>
<path d="M0 0 C1.32 0.33 2.64 0.66 4 1 C3.01 1.66 2.02 2.32 1 3 C0.67 2.01 0.34 1.02 0 0 Z " fill="#D5D0C9" transform="translate(35,88)"/>
<path d="M0 0 C0.66 0 1.32 0 2 0 C1.67 0.99 1.34 1.98 1 3 C0.01 2.67 -0.98 2.34 -2 2 C-1.34 1.34 -0.68 0.68 0 0 Z " fill="#1F1F1D" transform="translate(37,52)"/>
<path d="M0 0 C0.99 0.99 1.98 1.98 3 3 C2.34 3.66 1.68 4.32 1 5 C0.835 4.175 0.835 4.175 0 0 Z " fill="#E4E0D7" transform="translate(47,41)"/>
<path d="M0 0 C0.66 0.33 1.32 0.66 2 1 C1.34 2.32 0.68 3.64 0 5 C-0.5625 3.0625 -0.5625 3.0625 -1 1 C-0.67 0.67 -0.34 0.34 0 0 Z " fill="#DFDBD4" transform="translate(62,38)"/>
<path d="M0 0 C0.99 0.33 1.98 0.66 3 1 C2.67 1.99 2.34 2.98 2 4 C1.34 2.68 0.68 1.36 0 0 Z " fill="#E7E2DB" transform="translate(73,26)"/>
<path d="M0 0 C0.33 1.32 0.66 2.64 1 4 C0.01 3.67 -0.98 3.34 -2 3 C-1.34 2.01 -0.68 1.02 0 0 Z " fill="#242424" transform="translate(83,23)"/>
<path d="M0 0 C-0.33 0.99 -0.66 1.98 -1 3 C-1.99 2.34 -2.98 1.68 -4 1 C-2 0 -2 0 0 0 Z " fill="#0C0C0C" transform="translate(47,86)"/>
<path d="M0 0 C0.66 0.99 1.32 1.98 2 3 C1.01 3 0.02 3 -1 3 C-0.67 2.01 -0.34 1.02 0 0 Z " fill="#333231" transform="translate(87,73)"/>
<path d="M0 0 C0.66 0.99 1.32 1.98 2 3 C1.01 3.33 0.02 3.66 -1 4 C-0.67 2.68 -0.34 1.36 0 0 Z " fill="#D2CEC7" transform="translate(92,69)"/>
<path d="M0 0 C0.66 0.33 1.32 0.66 2 1 C2 1.66 2 2.32 2 3 C0.68 2.34 -0.64 1.68 -2 1 C-1.34 0.67 -0.68 0.34 0 0 Z " fill="#282827" transform="translate(86,52)"/>
<path d="M0 0 C0.66 0 1.32 0 2 0 C1.67 0.99 1.34 1.98 1 3 C0.34 3 -0.32 3 -1 3 C-0.67 2.01 -0.34 1.02 0 0 Z " fill="#DFDBD3" transform="translate(38,49)"/>
<path d="M0 0 C0.66 0.33 0.66 0.33 4 2 C3.01 2.33 2.02 2.66 1 3 C0.67 2.01 0.34 1.02 0 0 Z " fill="#D9D5CE" transform="translate(81,43)"/>
<path d="M0 0 C1.32 0.33 2.64 0.66 4 1 C3.34 1.66 2.68 2.32 2 3 C1.34 2.01 0.68 1.02 0 0 Z " fill="#E2DDD5" transform="translate(70,29)"/>
<path d="M0 0 C1.32 0.33 2.64 0.66 4 1 C3.34 1.66 2.68 2.32 2 3 C1.34 2.01 0.68 1.02 0 0 Z " fill="#D9D6CE" transform="translate(85,18)"/>
<path d="M0 0 C0.99 0.33 1.98 0.66 3 1 C2.34 1.66 1.68 2.32 1 3 C0.67 2.01 0.34 1.02 0 0 Z " fill="#E0DDD5" transform="translate(46,92)"/>
</svg>
